<svg width="300px" height="300px" viewBox="0 0 300 300" version="1.1" xmlns="http://www.w3.org/2000/svg">
  <path d="M 274.31 147.65 L 35.53 224.59 181.45 20.31 181.45 275.00 35.53 70.71 Z"
    style="fill:#0099FF; fill-opacity:0.13; fill-rule:nonzero; stroke:#0066FF; stroke-opacity:0.50; stroke-width:1.00;"/>

  <path d="M 269.00 182.14 L 19.61 195.41 213.29 36.22 146.96 280.31 59.41 46.84 Z"
    style="fill:#FF9900; fill-opacity:0.13; fill-rule:nonzero; stroke:#FF6600; stroke-opacity:0.50; stroke-width:1.00;"/>

  <path d="M 181.45 117.72 L 190.36 120.59 187.86 129.76 235.12 160.27 181.45 177.57 181.45 186.79 172.23 187.28 157.51 241.48 124.87 195.79 116.30 198.56 113.25 190.42 57.82 193.37 90.48 147.65 85.76 141.03 92.62 135.40 72.87 82.74 124.88 99.50 129.96 92.38 138.36 97.80 181.45 62.39 Z"
    style="fill:#66FF66; fill-opacity:0.50; fill-rule:nonzero; stroke:#006600; stroke-opacity:1.00; stroke-width:1.50;"/>

</svg>

