<svg width="179px" height="219px" viewBox="0 0 179 219" version="1.1" xmlns="http://www.w3.org/2000/svg">
  <path d="M 35.00 35.00 L 144.00 35.00 144.00 184.00 65.00 184.00 95.00 95.00 Z"
    style="fill:#0000FF; fill-opacity:0.06; fill-rule:evenodd; stroke:#0000FF; stroke-opacity:1.00; stroke-width:2.00;"/>

  <path d="M 150.00 21.00 L 155.00 25.00 158.00 30.00 159.00 35.00 159.00 184.00 158.00 190.00 154.00 195.00 149.00 198.00 144.00 199.00 65.00 199.00 59.00 198.00 54.00 194.00 51.00 189.00 50.00 183.00 51.00 179.00 77.00 99.00 24.00 46.00 21.00 41.00 20.00 35.00 21.00 29.00 25.00 24.00 30.00 21.00 35.00 20.00 144.00 20.00 Z"
    style="fill:#000000; fill-opacity:0.00; fill-rule:evenodd; stroke:#990000; stroke-opacity:1.00; stroke-width:2.00;"/>

  <g font-family="Verdana" font-style="normal" font-weight="normal" font-size="12" fill="#000000"><text x="59.00" y="217.00">JoinType.Round</text></g>
</svg>

