<?xml version="1.0" standalone="no"?>
<!DOCTYPE svg PUBLIC "-//W3C//DTD SVG 1.1//EN"
"http://www.w3.org/Graphics/SVG/1.1/DTD/svg11.dtd">

 <svg width="240px" height="240px" viewBox="0 0 240 240" version="1.1" xmlns="http://www.w3.org/2000/svg">

  <path d=" M 29.52 29.52 L 29.52 29.52 L 115.24 210.48 L 29.52 210.48 L 115.24 29.52"
    style="fill:#000000; fill-opacity:0.00; fill-rule:nonzero; stroke:#b3b3da; stroke-opacity:1.00; stroke-width:1.30;"/>
  <path d=" M 30.28 20.03 L 30.28 20.03 L 31.01 20.11 L 31.73 20.26 L 32.44 20.46 L 33.13 20.71 L 33.80 21.02 L 34.45 21.37 L 35.07 21.78 L 35.65 22.23 L 36.19 22.72 L 36.70 23.27 L 37.16 23.84 L 37.58 24.45 L 37.95 25.09 L 38.13 25.45 L 72.38 97.74 L 106.63 25.45 L 106.97 24.79 L 107.36 24.17 L 107.80 23.57 L 108.29 23.02 L 108.81 22.50 L 109.37 22.02 L 109.97 21.59 L 110.60 21.21 L 111.26 20.88 L 111.94 20.59 L 112.64 20.36 L 113.36 20.19 L 114.09 20.07 L 114.82 20.01 L 115.56 20.01 L 116.30 20.06 L 117.03 20.17 L 117.74 20.33 L 118.45 20.55 L 119.13 20.83 L 119.79 21.16 L 120.43 21.53 L 121.03 21.96 L 121.60 22.43 L 122.12 22.94 L 122.62 23.50 L 123.06 24.09 L 123.46 24.71 L 123.80 25.36 L 124.10 26.04 L 124.34 26.73 L 124.53 27.45 L 124.67 28.17 L 124.74 28.90 L 124.76 29.64 L 124.72 30.38 L 124.63 31.11 L 124.48 31.83 L 124.27 32.54 L 124.01 33.23 L 123.85 33.60 L 82.91 120.00 L 123.85 206.40 L 124.13 207.08 L 124.37 207.78 L 124.55 208.50 L 124.68 209.22 L 124.74 209.95 L 124.76 210.69 L 124.71 211.43 L 124.61 212.16 L 124.46 212.88 L 124.24 213.58 L 123.97 214.27 L 123.66 214.93 L 123.29 215.57 L 122.87 216.18 L 122.40 216.75 L 121.90 217.29 L 121.34 217.78 L 120.76 218.24 L 120.14 218.64 L 119.50 218.99 L 118.83 219.30 L 118.13 219.55 L 117.42 219.74 L 116.70 219.89 L 115.96 219.97 L 115.24 220.00 L 29.52 220.00 L 28.79 219.97 L 28.06 219.89 L 27.33 219.74 L 26.62 219.54 L 25.92 219.30 L 25.26 218.99 L 24.61 218.64 L 23.99 218.23 L 23.41 217.78 L 22.86 217.29 L 22.35 216.74 L 21.90 216.17 L 21.48 215.56 L 21.10 214.92 L 20.78 214.26 L 20.51 213.57 L 20.30 212.87 L 20.14 212.14 L 20.05 211.42 L 20.00 210.68 L 20.02 209.94 L 20.09 209.21 L 20.21 208.48 L 20.39 207.76 L 20.63 207.07 L 20.91 206.40 L 61.84 120.00 L 20.91 33.60 L 20.63 32.92 L 20.39 32.22 L 20.21 31.50 L 20.09 30.78 L 20.02 30.05 L 20.00 29.31 L 20.05 28.57 L 20.15 27.84 L 20.30 27.12 L 20.52 26.42 L 20.79 25.73 L 21.10 25.07 L 21.48 24.43 L 21.90 23.82 L 22.36 23.25 L 22.87 22.71 L 23.42 22.22 L 24.00 21.76 L 24.62 21.36 L 25.27 21.01 L 25.93 20.70 L 26.63 20.45 L 27.34 20.26 L 28.07 20.11 L 28.80 20.03 L 29.53 20.00 z M 44.57 200.95 L 44.57 200.95 L 100.19 200.95 L 72.38 142.25 z"
    style="fill:#66ff66; fill-opacity:0.27; fill-rule:nonzero; stroke:#003300; stroke-opacity:1.00; stroke-width:1.20;"/>
</svg>
