<?xml version="1.0" standalone="no"?>
<!DOCTYPE svg PUBLIC "-//W3C//DTD SVG 1.1//EN"
"http://www.w3.org/Graphics/SVG/1.1/DTD/svg11.dtd">

 <svg width="240px" height="240px" viewBox="0 0 240 240" version="1.1" xmlns="http://www.w3.org/2000/svg">

  <path d=" M 212.50 119.74 L 212.50 119.74 L 211.47 133.53 L 208.39 147.00 L 203.34 159.87 L 196.43 171.85 L 187.81 182.66 L 177.67 192.06 L 166.25 199.85 L 153.79 205.85 L 140.58 209.92 L 126.91 211.98 L 113.09 211.98 L 99.42 209.92 L 86.21 205.85 L 73.75 199.85 L 62.33 192.06 L 52.19 182.66 L 43.57 171.85 L 36.66 159.87 L 31.61 147.00 L 28.53 133.53 L 27.50 119.74 L 28.53 105.95 L 31.61 92.48 L 36.66 79.61 L 43.57 67.63 L 52.19 56.82 L 62.33 47.42 L 73.75 39.63 L 86.21 33.63 L 99.42 29.56 L 113.09 27.50 L 126.91 27.50 L 140.58 29.56 L 153.79 33.63 L 166.25 39.63 L 177.67 47.42 L 187.81 56.82 L 196.43 67.63 L 203.34 79.61 L 208.39 92.48 L 211.47 105.95 M 166.46 109.86 L 166.46 109.86 L 163.39 100.42 L 158.43 91.82 L 151.78 84.44 L 143.75 78.60 L 134.68 74.56 L 124.97 72.50 L 115.03 72.50 L 105.32 74.56 L 96.25 78.60 L 88.22 84.44 L 81.57 91.82 L 76.61 100.42 L 73.54 109.86 L 72.50 119.74 L 73.54 129.62 L 76.61 139.06 L 81.57 147.66 L 88.22 155.04 L 96.25 160.88 L 105.32 164.92 L 115.03 166.98 L 124.97 166.98 L 134.68 164.92 L 143.75 160.88 L 151.78 155.04 L 158.43 147.66 L 163.39 139.06 L 166.46 129.62 L 167.50 119.74"
    style="fill:#000000; fill-opacity:0.00; fill-rule:evenodd; stroke:#b3b3da; stroke-opacity:0.80; stroke-width:1.30;"/>
  <path d=" M 127.41 20.02 L 127.41 20.02 L 127.89 20.07 L 128.03 20.09 L 141.70 22.15 L 142.19 22.23 L 142.66 22.35 L 142.80 22.40 L 156.00 26.47 L 156.47 26.63 L 156.91 26.82 L 157.05 26.88 L 169.50 32.88 L 169.94 33.11 L 170.35 33.36 L 170.47 33.44 L 181.90 41.22 L 182.29 41.51 L 182.66 41.83 L 182.78 41.93 L 192.91 51.33 L 193.25 51.67 L 193.58 52.04 L 193.67 52.15 L 202.29 62.96 L 202.58 63.35 L 202.84 63.76 L 202.92 63.89 L 209.84 75.86 L 210.06 76.28 L 210.27 76.73 L 210.32 76.87 L 215.37 89.74 L 215.53 90.19 L 215.67 90.67 L 215.70 90.81 L 218.78 104.28 L 218.87 104.77 L 218.93 105.25 L 218.94 105.40 L 219.98 119.18 L 220.00 119.66 L 219.99 120.16 L 219.98 120.30 L 218.94 134.09 L 218.89 134.57 L 218.81 135.06 L 218.78 135.19 L 215.70 148.68 L 215.58 149.15 L 215.43 149.61 L 215.37 149.75 L 210.32 162.62 L 210.13 163.06 L 209.91 163.50 L 209.84 163.62 L 202.92 175.59 L 202.66 176.01 L 202.38 176.41 L 202.29 176.52 L 193.67 187.33 L 193.35 187.70 L 193.01 188.06 L 192.91 188.15 L 182.78 197.56 L 182.41 197.88 L 182.02 198.17 L 181.90 198.26 L 170.47 206.05 L 170.06 206.31 L 169.63 206.54 L 169.50 206.60 L 157.05 212.60 L 156.60 212.80 L 156.15 212.97 L 156.00 213.01 L 142.80 217.09 L 142.32 217.22 L 141.84 217.32 L 141.70 217.34 L 128.03 219.40 L 127.55 219.46 L 127.06 219.48 L 113.09 219.48 L 112.59 219.47 L 112.11 219.42 L 111.97 219.40 L 98.30 217.34 L 97.81 217.25 L 97.34 217.13 L 97.20 217.09 L 84.00 213.01 L 83.53 212.86 L 83.09 212.67 L 82.95 212.60 L 70.50 206.60 L 70.06 206.38 L 69.65 206.12 L 69.53 206.05 L 58.10 198.26 L 57.71 197.97 L 57.34 197.66 L 57.22 197.56 L 47.09 188.15 L 46.75 187.81 L 46.42 187.44 L 46.33 187.33 L 37.71 176.52 L 37.42 176.13 L 37.16 175.72 L 37.08 175.59 L 30.16 163.62 L 29.93 163.20 L 29.73 162.75 L 29.68 162.62 L 24.63 149.75 L 24.46 149.28 L 24.33 148.81 L 24.30 148.68 L 21.23 135.19 L 21.13 134.72 L 21.07 134.23 L 21.05 134.09 L 20.02 120.30 L 20.00 119.81 L 20.01 119.33 L 20.02 119.18 L 21.05 105.40 L 21.11 104.91 L 21.19 104.43 L 21.23 104.28 L 24.30 90.81 L 24.42 90.34 L 24.57 89.87 L 24.63 89.74 L 29.68 76.87 L 29.87 76.42 L 30.09 75.98 L 30.16 75.86 L 37.08 63.89 L 37.34 63.47 L 37.62 63.07 L 37.71 62.96 L 46.33 52.15 L 46.65 51.78 L 46.99 51.43 L 47.09 51.33 L 57.22 41.93 L 57.59 41.61 L 57.98 41.31 L 58.10 41.22 L 69.53 33.44 L 69.94 33.18 L 70.37 32.94 L 70.50 32.88 L 82.95 26.88 L 83.40 26.68 L 83.86 26.52 L 84.00 26.47 L 97.20 22.40 L 97.67 22.27 L 98.16 22.17 L 98.30 22.15 L 111.97 20.09 L 112.45 20.03 L 112.94 20.00 L 126.92 20.00 z M 113.64 35.00 L 113.64 35.00 L 101.08 36.89 L 88.95 40.63 L 77.53 46.13 L 67.00 53.31 L 57.70 61.94 L 49.78 71.87 L 43.43 82.88 L 38.80 94.69 L 35.97 107.06 L 35.02 119.74 L 35.97 132.42 L 38.80 144.78 L 43.43 156.60 L 49.78 167.61 L 57.70 177.54 L 67.00 186.17 L 77.53 193.34 L 88.95 198.84 L 101.08 202.59 L 113.64 204.48 L 126.36 204.48 L 138.92 202.59 L 151.05 198.84 L 162.46 193.34 L 173.00 186.17 L 182.29 177.54 L 190.21 167.61 L 196.56 156.60 L 201.20 144.78 L 204.03 132.42 L 204.97 119.74 L 204.03 107.06 L 201.20 94.69 L 196.56 82.88 L 190.21 71.87 L 182.29 61.94 L 173.00 53.31 L 162.46 46.13 L 151.05 40.63 L 138.92 36.89 L 126.36 35.00 z M 125.45 65.02 L 125.45 65.02 L 125.94 65.06 L 126.42 65.15 L 126.53 65.17 L 136.24 67.23 L 136.72 67.34 L 137.18 67.50 L 137.63 67.67 L 137.73 67.72 L 146.80 71.75 L 147.24 71.97 L 147.67 72.21 L 148.07 72.47 L 148.16 72.53 L 156.19 78.37 L 156.57 78.67 L 156.94 79.00 L 157.28 79.34 L 157.36 79.42 L 164.00 86.80 L 164.32 87.18 L 164.61 87.56 L 164.87 87.98 L 164.93 88.07 L 169.89 96.67 L 170.12 97.10 L 170.32 97.55 L 170.50 98.00 L 170.53 98.10 L 173.59 107.55 L 173.73 108.02 L 173.84 108.50 L 173.91 108.98 L 173.92 109.08 L 174.96 118.96 L 175.00 119.44 L 175.00 119.93 L 174.97 120.41 L 174.96 120.53 L 173.92 130.40 L 173.85 130.88 L 173.75 131.36 L 173.62 131.84 L 173.59 131.93 L 170.53 141.38 L 170.37 141.84 L 170.17 142.28 L 169.94 142.72 L 169.89 142.81 L 164.93 151.41 L 164.67 151.83 L 164.38 152.22 L 164.08 152.60 L 164.00 152.68 L 157.36 160.06 L 157.02 160.41 L 156.66 160.74 L 156.28 161.05 L 156.19 161.11 L 148.16 166.95 L 147.75 167.22 L 147.33 167.47 L 146.89 167.69 L 146.80 167.73 L 137.73 171.77 L 137.28 171.95 L 136.81 172.11 L 136.34 172.23 L 136.24 172.25 L 126.53 174.32 L 126.05 174.40 L 125.56 174.46 L 125.07 174.48 L 115.03 174.48 L 114.55 174.47 L 114.06 174.42 L 113.58 174.34 L 113.48 174.32 L 103.76 172.25 L 103.28 172.14 L 102.82 171.99 L 102.36 171.81 L 102.27 171.77 L 93.20 167.73 L 92.76 167.52 L 92.34 167.27 L 91.92 167.01 L 91.84 166.95 L 83.81 161.11 L 83.43 160.81 L 83.06 160.49 L 82.72 160.14 L 82.64 160.06 L 76.00 152.68 L 75.68 152.31 L 75.39 151.91 L 75.13 151.50 L 75.08 151.41 L 70.11 142.81 L 69.88 142.38 L 69.68 141.94 L 69.50 141.48 L 69.47 141.38 L 66.41 131.93 L 66.27 131.46 L 66.16 130.99 L 66.09 130.50 L 66.08 130.40 L 65.04 120.53 L 65.00 120.04 L 65.00 119.55 L 65.03 119.06 L 65.04 118.96 L 66.08 109.08 L 66.15 108.59 L 66.25 108.12 L 66.38 107.65 L 66.41 107.55 L 69.47 98.10 L 69.63 97.65 L 69.83 97.20 L 70.06 96.77 L 70.11 96.67 L 75.08 88.07 L 75.33 87.66 L 75.62 87.26 L 75.93 86.88 L 76.00 86.80 L 82.64 79.42 L 82.98 79.07 L 83.34 78.74 L 83.72 78.44 L 83.81 78.37 L 91.84 72.53 L 92.25 72.27 L 92.67 72.02 L 93.11 71.80 L 93.20 71.75 L 102.27 67.72 L 102.72 67.53 L 103.19 67.38 L 103.66 67.25 L 103.76 67.23 L 113.48 65.17 L 113.95 65.08 L 114.44 65.03 L 114.93 65.00 L 124.97 65.00 z M 115.82 80.00 L 115.82 80.00 L 107.64 81.74 L 100.03 85.13 L 93.27 90.03 L 87.66 96.26 L 83.50 103.48 L 80.91 111.43 L 80.04 119.74 L 80.91 128.05 L 83.50 136.00 L 87.66 143.22 L 93.27 149.44 L 100.03 154.34 L 107.64 157.74 L 115.82 159.48 L 124.18 159.48 L 132.35 157.74 L 139.97 154.34 L 146.73 149.44 L 152.33 143.22 L 156.50 136.00 L 159.08 128.05 L 159.96 119.74 L 159.08 111.43 L 156.50 103.48 L 152.33 96.26 L 146.73 90.03 L 139.97 85.13 L 132.35 81.74 L 124.18 80.00 z"
    style="fill:#66ff66; fill-opacity:0.27; fill-rule:evenodd; stroke:#003300; stroke-opacity:1.00; stroke-width:1.20;"/>
</svg>
