<?xml version="1.0" standalone="no"?>
<!DOCTYPE svg PUBLIC "-//W3C//DTD SVG 1.1//EN"
"http://www.w3.org/Graphics/SVG/1.1/DTD/svg11.dtd">

 <svg width="240px" height="240px" viewBox="0 0 240 240" version="1.1" xmlns="http://www.w3.org/2000/svg">

  <path d=" M 206.05 119.76 L 206.05 119.76 L 205.09 132.59 L 202.23 145.13 L 197.53 157.10 L 191.10 168.24 L 183.08 178.29 L 173.65 187.04 L 163.03 194.28 L 151.44 199.86 L 139.15 203.66 L 126.43 205.57 L 113.57 205.57 L 100.85 203.66 L 88.56 199.86 L 76.97 194.28 L 66.35 187.04 L 56.92 178.29 L 48.90 168.24 L 42.47 157.10 L 37.77 145.13 L 34.91 132.59 L 33.95 119.76 L 34.91 106.94 L 37.77 94.40 L 42.47 82.43 L 48.90 71.29 L 56.92 61.23 L 66.35 52.49 L 76.97 45.24 L 88.56 39.66 L 100.85 35.87 L 113.57 33.95 L 126.43 33.95 L 139.15 35.87 L 151.44 39.66 L 163.03 45.24 L 173.65 52.49 L 183.08 61.23 L 191.10 71.29 L 197.53 82.43 L 202.23 94.40 L 205.09 106.94 z M 163.22 110.58 L 163.22 110.58 L 160.37 101.79 L 155.75 93.79 L 149.57 86.92 L 142.09 81.49 L 133.65 77.74 L 124.62 75.82 L 115.38 75.82 L 106.35 77.74 L 97.91 81.49 L 90.43 86.92 L 84.25 93.79 L 79.63 101.79 L 76.78 110.58 L 75.81 119.76 L 76.78 128.95 L 79.63 137.74 L 84.25 145.74 L 90.43 152.60 L 97.91 158.03 L 106.35 161.79 L 115.38 163.71 L 124.62 163.71 L 133.65 161.79 L 142.09 158.03 L 149.57 152.60 L 155.75 145.74 L 160.37 137.74 L 163.22 128.95 L 164.19 119.76 z"
    style="fill:#00009c; fill-opacity:0.09; fill-rule:evenodd; stroke:#b3b3da; stroke-opacity:0.80; stroke-width:0.80;"/>
  <path d=" M 127.10 20.01 L 127.10 20.01 L 127.77 20.07 L 128.44 20.14 L 128.51 20.15 L 141.23 22.07 L 141.89 22.19 L 142.55 22.33 L 143.19 22.52 L 143.26 22.54 L 155.55 26.33 L 156.19 26.54 L 156.82 26.79 L 157.43 27.06 L 157.49 27.09 L 169.08 32.67 L 169.68 32.98 L 170.26 33.31 L 170.83 33.68 L 170.88 33.71 L 181.51 40.95 L 182.06 41.35 L 182.58 41.76 L 183.09 42.21 L 183.15 42.26 L 192.57 51.01 L 193.05 51.48 L 193.51 51.97 L 193.94 52.48 L 193.99 52.54 L 202.01 62.59 L 202.41 63.13 L 202.79 63.68 L 203.14 64.25 L 203.18 64.31 L 209.61 75.44 L 209.93 76.04 L 210.23 76.64 L 210.49 77.26 L 210.52 77.33 L 215.22 89.30 L 215.45 89.93 L 215.65 90.58 L 215.81 91.23 L 215.83 91.30 L 218.69 103.84 L 218.83 104.49 L 218.93 105.16 L 219.00 105.83 L 219.00 105.89 L 219.97 118.72 L 220.00 119.39 L 220.00 120.06 L 219.97 120.73 L 219.97 120.81 L 219.00 133.63 L 218.93 134.30 L 218.84 134.96 L 218.71 135.62 L 218.69 135.69 L 215.83 148.23 L 215.66 148.88 L 215.47 149.52 L 215.24 150.15 L 215.22 150.22 L 210.52 162.20 L 210.26 162.82 L 209.97 163.42 L 209.65 164.01 L 209.61 164.08 L 203.18 175.22 L 202.83 175.79 L 202.45 176.34 L 202.05 176.88 L 202.01 176.93 L 193.99 186.99 L 193.56 187.51 L 193.10 188.00 L 192.62 188.47 L 192.57 188.52 L 183.15 197.27 L 182.64 197.71 L 182.12 198.13 L 181.57 198.52 L 181.51 198.57 L 170.88 205.81 L 170.32 206.18 L 169.74 206.52 L 169.14 206.83 L 169.08 206.86 L 157.49 212.44 L 156.88 212.71 L 156.26 212.96 L 155.62 213.18 L 155.55 213.20 L 143.26 216.99 L 142.62 217.17 L 141.96 217.32 L 141.30 217.44 L 141.23 217.46 L 128.51 219.37 L 127.85 219.46 L 127.18 219.51 L 126.50 219.53 L 113.57 219.53 L 112.90 219.51 L 112.23 219.46 L 111.56 219.38 L 111.49 219.37 L 98.77 217.46 L 98.11 217.34 L 97.45 217.19 L 96.81 217.01 L 96.74 216.99 L 84.45 213.20 L 83.81 212.99 L 83.18 212.74 L 82.57 212.47 L 82.51 212.44 L 70.92 206.86 L 70.32 206.55 L 69.74 206.21 L 69.17 205.85 L 69.12 205.81 L 58.49 198.57 L 57.94 198.18 L 57.42 197.76 L 56.91 197.32 L 56.85 197.27 L 47.43 188.52 L 46.95 188.05 L 46.49 187.56 L 46.06 187.04 L 46.01 186.99 L 37.99 176.93 L 37.59 176.40 L 37.21 175.84 L 36.86 175.27 L 36.82 175.22 L 30.39 164.08 L 30.07 163.49 L 29.77 162.89 L 29.51 162.27 L 29.48 162.20 L 24.78 150.22 L 24.55 149.59 L 24.35 148.95 L 24.19 148.30 L 24.17 148.23 L 21.31 135.69 L 21.17 135.03 L 21.07 134.37 L 21.00 133.70 L 21.00 133.63 L 20.03 120.81 L 20.00 120.13 L 20.00 119.47 L 20.03 118.80 L 20.03 118.72 L 21.00 105.89 L 21.07 105.23 L 21.16 104.56 L 21.29 103.90 L 21.31 103.84 L 24.17 91.30 L 24.34 90.65 L 24.53 90.00 L 24.76 89.37 L 24.78 89.30 L 29.48 77.33 L 29.74 76.71 L 30.03 76.10 L 30.35 75.51 L 30.39 75.44 L 36.82 64.31 L 37.17 63.74 L 37.55 63.18 L 37.95 62.64 L 37.99 62.59 L 46.01 52.54 L 46.44 52.02 L 46.90 51.53 L 47.38 51.05 L 47.43 51.01 L 56.85 42.26 L 57.36 41.81 L 57.88 41.39 L 58.43 41.00 L 58.49 40.95 L 69.12 33.71 L 69.68 33.34 L 70.26 33.01 L 70.86 32.70 L 70.92 32.67 L 82.51 27.09 L 83.12 26.81 L 83.74 26.57 L 84.38 26.35 L 84.45 26.33 L 96.74 22.54 L 97.38 22.35 L 98.04 22.20 L 98.70 22.08 L 98.77 22.07 L 111.49 20.15 L 112.15 20.07 L 112.82 20.02 L 113.50 20.00 L 126.43 20.00 z M 116.84 89.77 L 116.84 89.77 L 110.68 91.08 L 104.92 93.65 L 99.81 97.35 L 95.60 102.02 L 92.45 107.48 L 90.50 113.51 L 89.84 119.76 L 90.50 126.01 L 92.45 132.04 L 95.60 137.50 L 99.81 142.17 L 104.92 145.88 L 110.68 148.44 L 116.84 149.75 L 123.16 149.75 L 129.32 148.44 L 135.08 145.88 L 140.19 142.17 L 144.39 137.50 L 147.54 132.04 L 149.50 126.01 L 150.15 119.76 L 149.50 113.51 L 147.54 107.48 L 144.39 102.02 L 140.19 97.35 L 135.08 93.65 L 129.32 91.08 L 123.16 89.77 z"
    style="fill:#66ff66; fill-opacity:0.27; fill-rule:evenodd; stroke:#003300; stroke-opacity:1.00; stroke-width:1.20;"/>
</svg>
