<svg width="640px" height="380px" viewBox="0 0 640 380" version="1.1" xmlns="http://www.w3.org/2000/svg">
  <g font-family="Verdana" font-style="normal" font-weight="normal" fill="none" stroke="none">

  <path d="M 70 22 L 70 324 618 324 "
   style="fill:none; stroke:black; stroke-width:1.2;"/>

  <g font-size="12" fill="black"><text text-anchor="middle" x="345.00" y="356.00">No. Edges per Polygon</text></g>
  <g font-size="12" fill="black"> <text text-anchor="middle" transform="translate(34.00,172.00) rotate(-90)">Time (secs)</text></g>
  <g font-size="12" fill="black"><text text-anchor="middle" x="70.00" y="341.00">0</text></g>
  <circle cx="70.00" cy="324.00" r="2.0" stroke="none" fill="black" />
  <g font-size="12" fill="black"><text text-anchor="middle" x="131.11" y="341.00">1000</text></g>
  <circle cx="131.11" cy="324.00" r="2.0" stroke="none" fill="black" />
  <g font-size="12" fill="black"><text text-anchor="middle" x="192.22" y="341.00">2000</text></g>
  <circle cx="192.22" cy="324.00" r="2.0" stroke="none" fill="black" />
  <g font-size="12" fill="black"><text text-anchor="middle" x="253.33" y="341.00">3000</text></g>
  <circle cx="253.33" cy="324.00" r="2.0" stroke="none" fill="black" />
  <g font-size="12" fill="black"><text text-anchor="middle" x="314.44" y="341.00">4000</text></g>
  <circle cx="314.44" cy="324.00" r="2.0" stroke="none" fill="black" />
  <g font-size="12" fill="black"><text text-anchor="middle" x="375.56" y="341.00">5000</text></g>
  <circle cx="375.56" cy="324.00" r="2.0" stroke="none" fill="black" />
  <g font-size="12" fill="black"><text text-anchor="middle" x="436.67" y="341.00">6000</text></g>
  <circle cx="436.67" cy="324.00" r="2.0" stroke="none" fill="black" />
  <g font-size="12" fill="black"><text text-anchor="middle" x="497.78" y="341.00">7000</text></g>
  <circle cx="497.78" cy="324.00" r="2.0" stroke="none" fill="black" />
  <g font-size="12" fill="black"><text text-anchor="middle" x="558.89" y="341.00">8000</text></g>
  <circle cx="558.89" cy="324.00" r="2.0" stroke="none" fill="black" />
  <g font-size="12" fill="black"><text text-anchor="end" x="65.00" y="324.00">0</text></g>
  <circle cx="70" cy="324" r="2.0" stroke="none" fill="black" />
  <g font-size="12" fill="black"><text text-anchor="end" x="65.00" y="293.60">50</text></g>
  <circle cx="70" cy="294" r="2.0" stroke="none" fill="black" />
  <g font-size="12" fill="black"><text text-anchor="end" x="65.00" y="263.20">100</text></g>
  <circle cx="70" cy="263" r="2.0" stroke="none" fill="black" />
  <g font-size="12" fill="black"><text text-anchor="end" x="65.00" y="232.80">150</text></g>
  <circle cx="70" cy="233" r="2.0" stroke="none" fill="black" />
  <g font-size="12" fill="black"><text text-anchor="end" x="65.00" y="202.40">200</text></g>
  <circle cx="70" cy="202" r="2.0" stroke="none" fill="black" />
  <g font-size="12" fill="black"><text text-anchor="end" x="65.00" y="172.00">250</text></g>
  <circle cx="70" cy="172" r="2.0" stroke="none" fill="black" />
  <g font-size="12" fill="black"><text text-anchor="end" x="65.00" y="141.60">300</text></g>
  <circle cx="70" cy="142" r="2.0" stroke="none" fill="black" />
  <g font-size="12" fill="black"><text text-anchor="end" x="65.00" y="111.20">350</text></g>
  <circle cx="70" cy="111" r="2.0" stroke="none" fill="black" />
  <g font-size="12" fill="black"><text text-anchor="end" x="65.00" y="80.80">400</text></g>
  <circle cx="70" cy="81" r="2.0" stroke="none" fill="black" />
  <g font-size="12" fill="black"><text text-anchor="end" x="65.00" y="50.40">450</text></g>
  <circle cx="70" cy="50" r="2.0" stroke="none" fill="black" />
  <path d="M 70.00 324.00 L 131.11 323.86 192.22 322.51 253.33 316.16 314.44 295.24 375.56 238.88 436.67 142.82 "
   style="fill:none; stroke:#BB0000; stroke-opacity:1.00; stroke-width:2.20; "/>

  <circle cx="70.00" cy="324.00" r="5.00" stroke="none" fill="#BB0000" opacity="1.00" />
  <circle cx="131.11" cy="323.86" r="5.00" stroke="none" fill="#BB0000" opacity="1.00" />
  <circle cx="192.22" cy="322.51" r="5.00" stroke="none" fill="#BB0000" opacity="1.00" />
  <circle cx="253.33" cy="316.16" r="5.00" stroke="none" fill="#BB0000" opacity="1.00" />
  <circle cx="314.44" cy="295.24" r="5.00" stroke="none" fill="#BB0000" opacity="1.00" />
  <circle cx="375.56" cy="238.88" r="5.00" stroke="none" fill="#BB0000" opacity="1.00" />
  <circle cx="436.67" cy="142.82" r="5.00" stroke="none" fill="#BB0000" opacity="1.00" />
  <path d="M 70.00 324.00 L 131.11 323.93 192.22 323.70 253.33 323.22 314.44 322.10 375.56 319.14 436.67 313.06 497.78 301.81 558.89 283.26 "
   style="fill:none; stroke:#FF9900; stroke-opacity:1.00; stroke-width:2.20; "/>

  <circle cx="70.00" cy="324.00" r="5.00" stroke="none" fill="#FF9900" opacity="1.00" />
  <circle cx="131.11" cy="323.93" r="5.00" stroke="none" fill="#FF9900" opacity="1.00" />
  <circle cx="192.22" cy="323.70" r="5.00" stroke="none" fill="#FF9900" opacity="1.00" />
  <circle cx="253.33" cy="323.22" r="5.00" stroke="none" fill="#FF9900" opacity="1.00" />
  <circle cx="314.44" cy="322.10" r="5.00" stroke="none" fill="#FF9900" opacity="1.00" />
  <circle cx="375.56" cy="319.14" r="5.00" stroke="none" fill="#FF9900" opacity="1.00" />
  <circle cx="436.67" cy="313.06" r="5.00" stroke="none" fill="#FF9900" opacity="1.00" />
  <circle cx="497.78" cy="301.81" r="5.00" stroke="none" fill="#FF9900" opacity="1.00" />
  <circle cx="558.89" cy="283.26" r="5.00" stroke="none" fill="#FF9900" opacity="1.00" />
  <path d="M 70.00 324.00 L 131.11 323.80 192.22 322.48 253.33 315.97 314.44 299.62 375.56 259.55 436.67 173.82 497.78 49.79 "
   style="fill:none; stroke:#006600; stroke-opacity:1.00; stroke-width:2.20; "/>

  <circle cx="70.00" cy="324.00" r="5.00" stroke="none" fill="#006600" opacity="1.00" />
  <circle cx="131.11" cy="323.80" r="5.00" stroke="none" fill="#006600" opacity="1.00" />
  <circle cx="192.22" cy="322.48" r="5.00" stroke="none" fill="#006600" opacity="1.00" />
  <circle cx="253.33" cy="315.97" r="5.00" stroke="none" fill="#006600" opacity="1.00" />
  <circle cx="314.44" cy="299.62" r="5.00" stroke="none" fill="#006600" opacity="1.00" />
  <circle cx="375.56" cy="259.55" r="5.00" stroke="none" fill="#006600" opacity="1.00" />
  <circle cx="436.67" cy="173.82" r="5.00" stroke="none" fill="#006600" opacity="1.00" />
  <circle cx="497.78" cy="49.79" r="5.00" stroke="none" fill="#006600" opacity="1.00" />
  <path d="M 70.00 324.00 L 131.11 323.92 192.22 323.62 253.33 322.51 314.44 319.93 375.56 312.69 436.67 298.46 497.78 273.54 558.89 232.80 "
   style="fill:none; stroke:#00BB00; stroke-opacity:1.00; stroke-width:2.20; "/>

  <circle cx="70.00" cy="324.00" r="5.00" stroke="none" fill="#00BB00" opacity="1.00" />
  <circle cx="131.11" cy="323.92" r="5.00" stroke="none" fill="#00BB00" opacity="1.00" />
  <circle cx="192.22" cy="323.62" r="5.00" stroke="none" fill="#00BB00" opacity="1.00" />
  <circle cx="253.33" cy="322.51" r="5.00" stroke="none" fill="#00BB00" opacity="1.00" />
  <circle cx="314.44" cy="319.93" r="5.00" stroke="none" fill="#00BB00" opacity="1.00" />
  <circle cx="375.56" cy="312.69" r="5.00" stroke="none" fill="#00BB00" opacity="1.00" />
  <circle cx="436.67" cy="298.46" r="5.00" stroke="none" fill="#00BB00" opacity="1.00" />
  <circle cx="497.78" cy="273.54" r="5.00" stroke="none" fill="#00BB00" opacity="1.00" />
  <circle cx="558.89" cy="232.80" r="5.00" stroke="none" fill="#00BB00" opacity="1.00" />
  <path d="M 70.00 324.00 L 131.11 323.88 192.22 323.29 253.33 321.14 314.44 314.15 375.56 298.40 436.67 267.70 497.78 209.09 558.89 122.14 "
   style="fill:none; stroke:#0000BB; stroke-opacity:1.00; stroke-width:2.20; "/>

  <circle cx="70.00" cy="324.00" r="5.00" stroke="none" fill="#0000BB" opacity="1.00" />
  <circle cx="131.11" cy="323.88" r="5.00" stroke="none" fill="#0000BB" opacity="1.00" />
  <circle cx="192.22" cy="323.29" r="5.00" stroke="none" fill="#0000BB" opacity="1.00" />
  <circle cx="253.33" cy="321.14" r="5.00" stroke="none" fill="#0000BB" opacity="1.00" />
  <circle cx="314.44" cy="314.15" r="5.00" stroke="none" fill="#0000BB" opacity="1.00" />
  <circle cx="375.56" cy="298.40" r="5.00" stroke="none" fill="#0000BB" opacity="1.00" />
  <circle cx="436.67" cy="267.70" r="5.00" stroke="none" fill="#0000BB" opacity="1.00" />
  <circle cx="497.78" cy="209.09" r="5.00" stroke="none" fill="#0000BB" opacity="1.00" />
  <circle cx="558.89" cy="122.14" r="5.00" stroke="none" fill="#0000BB" opacity="1.00" />
  <path d="M 70.00 324.00 L 131.11 323.95 192.22 323.80 253.33 323.53 314.44 322.78 375.56 321.14 436.67 317.74 497.78 310.93 558.89 298.46 "
   style="fill:none; stroke:#0099FF; stroke-opacity:1.00; stroke-width:2.20; "/>

  <circle cx="70.00" cy="324.00" r="5.00" stroke="none" fill="#0099FF" opacity="1.00" />
  <circle cx="131.11" cy="323.95" r="5.00" stroke="none" fill="#0099FF" opacity="1.00" />
  <circle cx="192.22" cy="323.80" r="5.00" stroke="none" fill="#0099FF" opacity="1.00" />
  <circle cx="253.33" cy="323.53" r="5.00" stroke="none" fill="#0099FF" opacity="1.00" />
  <circle cx="314.44" cy="322.78" r="5.00" stroke="none" fill="#0099FF" opacity="1.00" />
  <circle cx="375.56" cy="321.14" r="5.00" stroke="none" fill="#0099FF" opacity="1.00" />
  <circle cx="436.67" cy="317.74" r="5.00" stroke="none" fill="#0099FF" opacity="1.00" />
  <circle cx="497.78" cy="310.93" r="5.00" stroke="none" fill="#0099FF" opacity="1.00" />
  <circle cx="558.89" cy="298.46" r="5.00" stroke="none" fill="#0099FF" opacity="1.00" />
  <text text-anchor="left" fill="black" font-size="12" x="131.11" y="162.84">Clipper2 (Delphi)</text>
  <line x1="247.22" y1="159.84" x2="283.89" y2="159.84" stroke="#FF9900" stroke-width="2.2" />
  <circle cx="247.22" cy="159.84" r="5.00" stroke="none" fill="#FF9900"/>
  <circle cx="283.89" cy="159.84" r="5.00" stroke="none" fill="#FF9900"/>
  <text text-anchor="left" fill="black" font-size="12" x="131.11" y="144.60">Clipper1 (Delphi)</text>
  <line x1="247.22" y1="141.60" x2="283.89" y2="141.60" stroke="#DD0000" stroke-width="2.2" />
  <circle cx="247.22" cy="141.60" r="5.00" stroke="none" fill="#DD0000"/>
  <circle cx="283.89" cy="141.60" r="5.00" stroke="none" fill="#DD0000"/>
  <text text-anchor="left" fill="black" font-size="12" x="131.11" y="199.32">Clipper2 (C#)</text>
  <line x1="247.22" y1="196.32" x2="283.89" y2="196.32" stroke="#00BB00" stroke-width="2.2" />
  <circle cx="247.22" cy="196.32" r="5.00" stroke="none" fill="#00BB00"/>
  <circle cx="283.89" cy="196.32" r="5.00" stroke="none" fill="#00BB00"/>
  <text text-anchor="left" fill="black" font-size="12" x="131.11" y="181.08">Clipper1 (C#)</text>
  <line x1="247.22" y1="178.08" x2="283.89" y2="178.08" stroke="#006600" stroke-width="2.2" />
  <circle cx="247.22" cy="178.08" r="5.00" stroke="none" fill="#006600"/>
  <circle cx="283.89" cy="178.08" r="5.00" stroke="none" fill="#006600"/>
  <text text-anchor="left" fill="black" font-size="12" x="131.11" y="235.80">Clipper2 (C++)</text>
  <line x1="247.22" y1="232.80" x2="283.89" y2="232.80" stroke="#0099FF" stroke-width="2.2" />
  <circle cx="247.22" cy="232.80" r="5.00" stroke="none" fill="#0099FF"/>
  <circle cx="283.89" cy="232.80" r="5.00" stroke="none" fill="#0099FF"/>
  <text text-anchor="left" fill="black" font-size="12" x="131.11" y="217.56">Clipper1 (C++)</text>
  <line x1="247.22" y1="214.56" x2="283.89" y2="214.56" stroke="#0000BB" stroke-width="2.2" />
  <circle cx="247.22" cy="214.56" r="5.00" stroke="none" fill="#0000BB"/>
  <circle cx="283.89" cy="214.56" r="5.00" stroke="none" fill="#0000BB"/>
  <g font-size="14" font-weight="bold" fill="black"><text text-anchor="middle" x="345.00" y="48.00">Clipper1 vs Clipper2 Performance</text></g>
  <g font-size="12" font-weight="normal" fill="black"><text text-anchor="middle" x="345.00" y="69.00">Intersecting 2 random complex polygons</text></g>
  </g>

</svg>

