<?xml version="1.0" standalone="no"?>
<!DOCTYPE svg PUBLIC "-//W3C//DTD SVG 1.1//EN"
"http://www.w3.org/Graphics/SVG/1.1/DTD/svg11.dtd">

 <svg width="430px" height="400px" viewBox="0 0 430 400" version="1.1" xmlns="http://www.w3.org/2000/svg">

  <path d=" M 20.00 20.00 L 20.00 20.00 L 380.00 20.00 L 380.00 380.00 L 20.00 380.00 z M 56.00 56.00 L 56.00 56.00 L 56.00 128.00 L 110.00 128.00 L 110.00 56.00 z M 164.00 56.00 L 164.00 56.00 L 164.00 128.00 L 218.00 128.00 L 218.00 56.00 z M 272.00 56.00 L 272.00 56.00 L 272.00 128.00 L 326.00 128.00 L 326.00 56.00 z M 56.00 164.00 L 56.00 164.00 L 56.00 344.00 L 344.00 344.00 L 344.00 164.00 z M 92.00 182.00 L 92.00 182.00 L 308.00 182.00 L 308.00 290.00 L 92.00 290.00 z M 92.00 308.00 L 92.00 308.00 L 308.00 308.00 L 308.00 326.00 L 92.00 326.00 z M 128.00 200.00 L 128.00 200.00 L 128.00 272.00 L 182.00 272.00 L 182.00 200.00 z M 218.00 200.00 L 218.00 200.00 L 218.00 272.00 L 272.00 272.00 L 272.00 200.00 z"
    style="fill:#66ff66; fill-opacity:0.27; fill-rule:nonzero; stroke:#003300; stroke-opacity:1.00; stroke-width:1.20;"/>
  <g font-family="Verdana" font-size="11" fill="#000000" fill-opacity="1">
    <text x="20" y="20">0,0</text>
    <text x="380" y="20">100,0</text>
    <text x="380" y="380">100,100</text>
    <text x="20" y="380">0,100</text>
    <text x="56" y="56">10,10</text>
    <text x="56" y="128">10,30</text>
    <text x="110" y="128">25,30</text>
    <text x="110" y="56">25,10</text>
    <text x="164" y="56">40,10</text>
    <text x="164" y="128">40,30</text>
    <text x="218" y="128">55,30</text>
    <text x="218" y="56">55,10</text>
    <text x="272" y="56">70,10</text>
    <text x="272" y="128">70,30</text>
    <text x="326" y="128">85,30</text>
    <text x="326" y="56">85,10</text>
    <text x="56" y="164">10,40</text>
    <text x="56" y="344">10,90</text>
    <text x="344" y="344">90,90</text>
    <text x="344" y="164">90,40</text>
    <text x="92" y="182">20,45</text>
    <text x="308" y="182">80,45</text>
    <text x="308" y="290">80,75</text>
    <text x="92" y="290">20,75</text>
    <text x="92" y="308">20,80</text>
    <text x="308" y="308">80,80</text>
    <text x="308" y="326">80,85</text>
    <text x="92" y="326">20,85</text>
    <text x="128" y="200">30,50</text>
    <text x="128" y="272">30,70</text>
    <text x="182" y="272">45,70</text>
    <text x="182" y="200">45,50</text>
    <text x="218" y="200">55,50</text>
    <text x="218" y="272">55,70</text>
    <text x="272" y="272">70,70</text>
    <text x="272" y="200">70,50</text>
  </g>

</svg>
