<svg width="560px" height="360px" viewBox="0 0 560 360" version="1.1" xmlns="http://www.w3.org/2000/svg">
  <g font-family="Verdana" font-style="normal" font-weight="normal" fill="none" stroke="none">

  <path d="M 60 22 L 60 304 538 304 "
   style="fill:none; stroke:black; stroke-width:1.2;"/>

  <g font-size="12" fill="black"><text text-anchor="middle" x="300.00" y="336.00">Polygon Count</text></g>
  <g font-size="12" fill="black"> <text text-anchor="middle" transform="translate(34.00,162.00) rotate(-90)">Time (secs)</text></g>
  <g font-size="12" fill="black"><text text-anchor="middle" x="60.00" y="321.00">0</text></g>
  <circle cx="60.00" cy="304.00" r="2.0" stroke="none" fill="black" />
  <g font-size="12" fill="black"><text text-anchor="middle" x="140.00" y="321.00">20000</text></g>
  <circle cx="140.00" cy="304.00" r="2.0" stroke="none" fill="black" />
  <g font-size="12" fill="black"><text text-anchor="middle" x="220.00" y="321.00">40000</text></g>
  <circle cx="220.00" cy="304.00" r="2.0" stroke="none" fill="black" />
  <g font-size="12" fill="black"><text text-anchor="middle" x="300.00" y="321.00">60000</text></g>
  <circle cx="300.00" cy="304.00" r="2.0" stroke="none" fill="black" />
  <g font-size="12" fill="black"><text text-anchor="middle" x="380.00" y="321.00">80000</text></g>
  <circle cx="380.00" cy="304.00" r="2.0" stroke="none" fill="black" />
  <g font-size="12" fill="black"><text text-anchor="middle" x="460.00" y="321.00">100000</text></g>
  <circle cx="460.00" cy="304.00" r="2.0" stroke="none" fill="black" />
  <g font-size="12" fill="black"><text text-anchor="end" x="55.00" y="304.00">0</text></g>
  <circle cx="60" cy="304" r="2.0" stroke="none" fill="black" />
  <g font-size="12" fill="black"><text text-anchor="end" x="55.00" y="256.67">10</text></g>
  <circle cx="60" cy="257" r="2.0" stroke="none" fill="black" />
  <g font-size="12" fill="black"><text text-anchor="end" x="55.00" y="209.33">20</text></g>
  <circle cx="60" cy="209" r="2.0" stroke="none" fill="black" />
  <g font-size="12" fill="black"><text text-anchor="end" x="55.00" y="162.00">30</text></g>
  <circle cx="60" cy="162" r="2.0" stroke="none" fill="black" />
  <g font-size="12" fill="black"><text text-anchor="end" x="55.00" y="114.67">40</text></g>
  <circle cx="60" cy="115" r="2.0" stroke="none" fill="black" />
  <g font-size="12" fill="black"><text text-anchor="end" x="55.00" y="67.33">50</text></g>
  <circle cx="60" cy="67" r="2.0" stroke="none" fill="black" />
  <path d="M 60.00 304.00 L 140.00 296.24 220.00 268.93 300.00 220.69 380.00 147.80 460.00 53.13 "
   style="fill:none; stroke:#FF0000; stroke-opacity:1.00; stroke-width:2.20; "/>

  <circle cx="60.00" cy="304.00" r="5.00" stroke="none" fill="#FF0000" opacity="1.00" />
  <circle cx="140.00" cy="296.24" r="5.00" stroke="none" fill="#FF0000" opacity="1.00" />
  <circle cx="220.00" cy="268.93" r="5.00" stroke="none" fill="#FF0000" opacity="1.00" />
  <circle cx="300.00" cy="220.69" r="5.00" stroke="none" fill="#FF0000" opacity="1.00" />
  <circle cx="380.00" cy="147.80" r="5.00" stroke="none" fill="#FF0000" opacity="1.00" />
  <circle cx="460.00" cy="53.13" r="5.00" stroke="none" fill="#FF0000" opacity="1.00" />
  <path d="M 60.00 304.00 L 140.00 304.00 220.00 303.91 300.00 302.58 380.00 302.11 460.00 301.63 "
   style="fill:none; stroke:#0000FF; stroke-opacity:1.00; stroke-width:2.20; "/>

  <circle cx="60.00" cy="304.00" r="5.00" stroke="none" fill="#0000FF" opacity="1.00" />
  <circle cx="140.00" cy="304.00" r="5.00" stroke="none" fill="#0000FF" opacity="1.00" />
  <circle cx="220.00" cy="303.91" r="5.00" stroke="none" fill="#0000FF" opacity="1.00" />
  <circle cx="300.00" cy="302.58" r="5.00" stroke="none" fill="#0000FF" opacity="1.00" />
  <circle cx="380.00" cy="302.11" r="5.00" stroke="none" fill="#0000FF" opacity="1.00" />
  <circle cx="460.00" cy="301.63" r="5.00" stroke="none" fill="#0000FF" opacity="1.00" />
  <text text-anchor="left" fill="black" font-size="12" x="140.00" y="141.33">Clipper64</text>
  <line x1="228.00" y1="138.33" x2="260.00" y2="138.33" stroke="#FF0000" stroke-width="2.2" />
  <circle cx="228.00" cy="138.33" r="5.00" stroke="none" fill="#FF0000"/>
  <circle cx="260.00" cy="138.33" r="5.00" stroke="none" fill="#FF0000"/>
  <text text-anchor="left" fill="black" font-size="12" x="140.00" y="155.53">RectClip</text>
  <line x1="228.00" y1="152.53" x2="260.00" y2="152.53" stroke="#0000FF" stroke-width="2.2" />
  <circle cx="228.00" cy="152.53" r="5.00" stroke="none" fill="#0000FF"/>
  <circle cx="260.00" cy="152.53" r="5.00" stroke="none" fill="#0000FF"/>
  <g font-size="14" font-weight="bold" fill="black"><text text-anchor="middle" x="300.00" y="48.00">RectClip vs Clipper64 Performance</text></g>
  <g font-size="12" font-weight="normal" fill="black"><text text-anchor="middle" x="300.00" y="69.00">Intersecting simple concave polygons</text></g>
  </g>

</svg>

