<svg width="240px" height="240px" viewBox="0 0 240 240" version="1.1" xmlns="http://www.w3.org/2000/svg">
  <path d="M 110.30 74.37 L 110.30 80.38 108.59 86.39 106.87 91.54 103.44 96.69 100.00 101.84 95.71 106.13 91.42 109.56 86.27 113.00 80.26 115.57 75.11 116.43 69.10 117.29 63.09 117.29 57.09 116.43 51.08 113.85 45.93 111.28 40.78 107.85 36.48 104.41 33.05 99.26 29.62 94.11 27.04 88.96 25.33 82.95 24.47 76.94 24.47 71.79 25.33 65.79 27.04 59.78 29.62 54.63 33.05 49.48 36.48 44.33 40.78 40.89 45.93 37.46 51.08 34.88 57.09 32.31 63.09 31.45 69.10 31.45 75.11 32.31 80.26 33.17 86.27 35.74 91.42 39.18 95.71 42.61 100.00 46.90 103.44 52.05 106.87 57.20 108.59 62.35 110.30 68.36 ZM 135.20 86.39 L 135.20 92.39 133.48 98.40 131.76 103.55 128.33 108.70 124.90 113.85 120.61 118.15 116.31 121.58 111.16 125.01 105.15 127.59 100.00 128.45 94.00 129.30 87.99 129.30 81.98 128.45 75.97 125.87 70.82 123.30 65.67 119.86 61.38 116.43 57.94 111.28 54.51 106.13 51.94 100.98 50.22 94.97 49.36 88.96 49.36 83.81 50.22 77.80 51.94 71.79 54.51 66.64 57.94 61.49 61.38 56.34 65.67 52.91 70.82 49.48 75.97 46.90 81.98 44.33 87.99 43.47 94.00 43.47 100.00 44.33 105.15 45.18 111.16 47.76 116.31 51.19 120.61 54.63 124.90 58.92 128.33 64.07 131.76 69.22 133.48 74.37 135.20 80.38 ZM 140.35 106.99 L 140.35 113.00 138.63 119.00 136.91 124.15 133.48 129.30 130.05 134.45 125.76 138.75 121.46 142.18 116.31 145.61 110.30 148.19 105.15 149.05 99.15 149.91 93.14 149.91 87.13 149.05 81.12 146.47 75.97 143.90 70.82 140.46 66.53 137.03 63.09 131.88 59.66 126.73 57.09 121.58 55.37 115.57 54.51 109.56 54.51 104.41 55.37 98.40 57.09 92.39 59.66 87.24 63.09 82.09 66.53 76.94 70.82 73.51 75.97 70.08 81.12 67.50 87.13 64.93 93.14 64.07 99.15 64.07 105.15 64.93 110.30 65.79 116.31 68.36 121.46 71.79 125.76 75.23 130.05 79.52 133.48 84.67 136.91 89.82 138.63 94.97 140.35 100.98 ZM 106.01 115.57 L 106.01 121.58 104.30 127.59 102.58 132.74 99.15 137.89 95.71 143.04 91.42 147.33 87.13 150.76 81.98 154.20 75.97 156.77 70.82 157.63 64.81 158.49 58.80 158.49 52.79 157.63 46.79 155.06 41.64 152.48 36.48 149.05 32.19 145.61 28.76 140.46 25.33 135.31 22.75 130.16 21.03 124.15 20.18 118.15 20.18 113.00 21.03 106.99 22.75 100.98 25.33 95.83 28.76 90.68 32.19 85.53 36.48 82.09 41.64 78.66 46.79 76.09 52.79 73.51 58.80 72.65 64.81 72.65 70.82 73.51 75.97 74.37 81.98 76.94 87.13 80.38 91.42 83.81 95.71 88.10 99.15 93.25 102.58 98.40 104.30 103.55 106.01 109.56 ZM 179.83 63.21 L 179.83 69.22 178.12 75.23 176.40 80.38 172.97 85.53 169.53 90.68 165.24 94.97 160.95 98.40 155.80 101.84 149.79 104.41 144.64 105.27 138.63 106.13 132.62 106.13 126.61 105.27 120.61 102.70 115.45 100.12 110.30 96.69 106.01 93.25 102.58 88.10 99.15 82.95 96.57 77.80 94.85 71.79 94.00 65.79 94.00 60.64 94.85 54.63 96.57 48.62 99.15 43.47 102.58 38.32 106.01 33.17 110.30 29.73 115.45 26.30 120.61 23.73 126.61 21.15 132.62 20.29 138.63 20.29 144.64 21.15 149.79 22.01 155.80 24.58 160.95 28.02 165.24 31.45 169.53 35.74 172.97 40.89 176.40 46.04 178.12 51.19 179.83 57.20 ZM 173.82 177.37 L 173.82 183.38 172.11 189.39 170.39 194.54 166.96 199.69 163.52 204.84 159.23 209.13 154.94 212.57 149.79 216.00 143.78 218.58 138.63 219.43 132.62 220.29 126.61 220.29 120.61 219.43 114.60 216.86 109.45 214.28 104.30 210.85 100.00 207.42 96.57 202.27 93.14 197.12 90.56 191.97 88.85 185.96 87.99 179.95 87.99 174.80 88.85 168.79 90.56 162.78 93.14 157.63 96.57 152.48 100.00 147.33 104.30 143.90 109.45 140.46 114.60 137.89 120.61 135.31 126.61 134.45 132.62 134.45 138.63 135.31 143.78 136.17 149.79 138.75 154.94 142.18 159.23 145.61 163.52 149.91 166.96 155.06 170.39 160.21 172.11 165.36 173.82 171.36 ZM 163.52 132.74 L 163.52 138.75 161.81 144.76 160.09 149.91 156.66 155.06 153.22 160.21 148.93 164.50 144.64 167.93 139.49 171.36 133.48 173.94 128.33 174.80 122.32 175.66 116.31 175.66 110.30 174.80 104.30 172.22 99.15 169.65 94.00 166.21 89.70 162.78 86.27 157.63 82.84 152.48 80.26 147.33 78.55 141.32 77.69 135.31 77.69 130.16 78.55 124.15 80.26 118.15 82.84 113.00 86.27 107.85 89.70 102.70 94.00 99.26 99.15 95.83 104.30 93.25 110.30 90.68 116.31 89.82 122.32 89.82 128.33 90.68 133.48 91.54 139.49 94.11 144.64 97.55 148.93 100.98 153.22 105.27 156.66 110.42 160.09 115.57 161.81 120.72 163.52 126.73 Z"
    style="fill:#0066FF; fill-opacity:0.06; fill-rule:nonzero; stroke:#0066FF; stroke-opacity:0.25; stroke-width:1.00;"/>

  <path d="M 31.33 50.33 L 168.67 50.33 168.67 187.67 31.33 187.67 Z"
    style="fill:#FFAA00; fill-opacity:0.06; fill-rule:nonzero; stroke:#FF0000; stroke-opacity:1.00; stroke-width:1.00;"/>

  <path d="M 36.48 104.41 L 31.33 96.69 31.33 52.05 32.19 50.33 101.72 50.33 103.44 52.05 106.87 57.20 108.59 62.35 110.30 68.36 110.30 80.38 108.59 86.39 106.87 91.54 100.00 101.84 95.71 106.13 91.42 109.56 86.27 113.00 80.26 115.57 75.11 116.43 69.10 117.29 63.09 117.29 57.09 116.43 51.08 113.85 45.93 111.28 40.78 107.85 ZM 124.90 58.92 L 131.76 69.22 133.48 74.37 135.20 80.38 135.20 92.39 133.48 98.40 131.76 103.55 124.90 113.85 120.61 118.15 116.31 121.58 111.16 125.01 105.15 127.59 100.00 128.45 94.00 129.30 87.99 129.30 81.98 128.45 75.97 125.87 70.82 123.30 65.67 119.86 61.38 116.43 54.51 106.13 51.94 100.98 50.22 94.97 49.36 88.96 49.36 83.81 50.22 77.80 51.94 71.79 54.51 66.64 61.38 56.34 65.67 52.91 69.10 50.33 114.60 50.33 116.31 51.19 120.61 54.63 ZM 130.05 79.52 L 136.91 89.82 138.63 94.97 140.35 100.98 140.35 113.00 138.63 119.00 136.91 124.15 130.05 134.45 125.76 138.75 121.46 142.18 116.31 145.61 110.30 148.19 105.15 149.05 99.15 149.91 93.14 149.91 87.13 149.05 81.12 146.47 75.97 143.90 70.82 140.46 66.53 137.03 59.66 126.73 57.09 121.58 55.37 115.57 54.51 109.56 54.51 104.41 55.37 98.40 57.09 92.39 59.66 87.24 66.53 76.94 70.82 73.51 75.97 70.08 81.12 67.50 87.13 64.93 93.14 64.07 99.15 64.07 105.15 64.93 110.30 65.79 116.31 68.36 121.46 71.79 125.76 75.23 ZM 95.71 88.10 L 102.58 98.40 104.30 103.55 106.01 109.56 106.01 121.58 104.30 127.59 102.58 132.74 95.71 143.04 91.42 147.33 87.13 150.76 81.98 154.20 75.97 156.77 70.82 157.63 64.81 158.49 58.80 158.49 52.79 157.63 46.79 155.06 41.64 152.48 36.48 149.05 32.19 145.61 31.33 143.90 31.33 86.39 32.19 85.53 36.48 82.09 41.64 78.66 46.79 76.09 52.79 73.51 58.80 72.65 64.81 72.65 70.82 73.51 75.97 74.37 81.98 76.94 87.13 80.38 91.42 83.81 ZM 106.01 93.25 L 99.15 82.95 96.57 77.80 94.85 71.79 94.00 65.79 94.00 60.64 94.85 54.63 95.71 50.33 168.67 50.33 168.67 91.54 165.24 94.97 160.95 98.40 155.80 101.84 149.79 104.41 144.64 105.27 138.63 106.13 132.62 106.13 126.61 105.27 120.61 102.70 115.45 100.12 110.30 96.69 ZM 163.52 149.91 L 168.67 157.63 168.67 187.67 88.85 187.67 88.85 185.96 87.99 179.95 87.99 174.80 88.85 168.79 90.56 162.78 93.14 157.63 100.00 147.33 104.30 143.90 109.45 140.46 114.60 137.89 120.61 135.31 126.61 134.45 132.62 134.45 138.63 135.31 143.78 136.17 149.79 138.75 154.94 142.18 159.23 145.61 ZM 153.22 105.27 L 160.09 115.57 161.81 120.72 163.52 126.73 163.52 138.75 161.81 144.76 160.09 149.91 153.22 160.21 148.93 164.50 144.64 167.93 139.49 171.36 133.48 173.94 128.33 174.80 122.32 175.66 116.31 175.66 110.30 174.80 104.30 172.22 99.15 169.65 94.00 166.21 89.70 162.78 82.84 152.48 80.26 147.33 78.55 141.32 77.69 135.31 77.69 130.16 78.55 124.15 80.26 118.15 82.84 113.00 89.70 102.70 94.00 99.26 99.15 95.83 104.30 93.25 110.30 90.68 116.31 89.82 122.32 89.82 128.33 90.68 133.48 91.54 139.49 94.11 144.64 97.55 148.93 100.98 Z"
    style="fill:#66FF66; fill-opacity:0.50; fill-rule:nonzero; stroke:#006600; stroke-opacity:1.00; stroke-width:1.00;"/>

  <g font-family="Verdana" font-style="normal" font-weight="normal" font-size="12" fill="#000000"><text x="31.33" y="36.60">NonZero</text></g>
</svg>

