<svg width="540px" height="400px" viewBox="0 0 540 400" version="1.1" xmlns="http://www.w3.org/2000/svg">
  <path d="M 185.63 372.90 L 209.37 380.50 142.88 20.50 156.18 295.01 337.60 106.94 480.08 373.85 297.71 198.12 488.63 171.53 196.07 299.76 327.16 146.83 125.78 25.25 66.89 315.91 387.95 304.51 393.65 31.90 27.95 210.47 488.63 148.73 436.39 333.01 209.37 305.46 158.08 36.65 432.59 353.90 295.81 212.37 20.35 257.97 492.43 138.28 332.85 121.18 187.53 225.67 "
    style="fill:none; stroke:#0066FF; stroke-opacity:0.50; stroke-width:1.80; "/>

  <path d="M 102.99 105.99 L 425.94 105.99 425.94 295.96 102.99 295.96 Z"
    style="fill:#FF9900; fill-opacity:0.06; fill-rule:nonzero; stroke:#FF6600; stroke-opacity:0.50; stroke-width:1.00;"/>

  <path d="M 194.17 295.96 L 159.03 105.99 M 146.68 105.99 L 156.18 295.01 337.60 106.94 425.94 272.21 M 399.35 295.96 L 297.71 198.12 425.94 180.08 M 425.94 199.07 L 204.62 295.96 M 198.92 295.96 L 327.16 146.83 259.72 105.99 M 109.64 105.99 L 102.99 137.33 M 387.95 295.96 L 391.75 105.99 M 241.67 105.99 L 102.99 173.43 M 102.99 200.02 L 425.94 157.28 M 207.47 295.96 L 171.38 105.99 M 217.92 105.99 L 382.25 295.96 M 376.55 295.96 L 295.81 212.37 102.99 244.67 M 102.99 237.07 L 425.94 155.38 M 425.94 131.63 L 332.85 121.18 187.53 225.67 "
    style="fill:none; stroke:#006600; stroke-opacity:1.00; stroke-width:2.20; "/>

</svg>

