<svg width="400px" height="400px" viewBox="0 0 400 400" version="1.1" xmlns="http://www.w3.org/2000/svg">
  <path d="M 175.87 147.52 L 175.87 130.62 192.77 130.62 192.77 147.52 209.68 147.52 209.68 164.42 192.77 164.42 192.77 181.32 175.87 181.32 175.87 164.42 158.97 164.42 158.97 147.52 ZM 253.62 166.96 L 304.32 166.96 304.32 183.86 270.52 183.86 270.52 200.76 304.32 200.76 304.32 217.66 253.62 217.66 ZM 43.20 258.23 L 93.90 258.23 93.90 275.13 60.10 275.13 60.10 292.03 93.90 292.03 93.90 308.93 43.20 308.93 ZM 104.04 174.56 L 104.04 140.76 87.14 140.76 87.14 123.86 137.85 123.86 137.85 140.76 120.94 140.76 120.94 174.56 ZM 93.90 272.59 L 93.90 255.69 110.80 255.69 110.80 272.59 127.70 272.59 127.70 289.49 110.80 289.49 110.80 306.39 93.90 306.39 93.90 289.49 77.00 289.49 77.00 272.59 ZM 306.01 206.68 L 306.01 172.87 289.11 172.87 289.11 155.97 339.82 155.97 339.82 172.87 322.92 172.87 322.92 206.68 ZM 242.63 335.97 L 242.63 319.07 259.54 319.07 259.54 335.97 276.44 335.97 276.44 352.87 259.54 352.87 259.54 369.77 242.63 369.77 242.63 352.87 225.73 352.87 225.73 335.97 ZM 304.32 73.15 L 355.03 73.15 355.03 90.06 321.23 90.06 321.23 106.96 355.03 106.96 355.03 123.86 304.32 123.86 ZM 263.76 41.04 L 263.76 24.14 280.66 24.14 280.66 41.04 297.56 41.04 297.56 57.94 280.66 57.94 280.66 74.85 263.76 74.85 263.76 57.94 246.86 57.94 246.86 41.04 ZM 312.77 82.45 L 312.77 65.55 329.68 65.55 329.68 82.45 346.58 82.45 346.58 99.35 329.68 99.35 329.68 116.25 312.77 116.25 312.77 99.35 295.87 99.35 295.87 82.45 ZM 78.69 150.90 L 78.69 117.10 61.79 117.10 61.79 100.20 112.49 100.20 112.49 117.10 95.59 117.10 95.59 150.90 ZM 150.52 183.01 L 150.52 149.21 133.62 149.21 133.62 132.31 184.32 132.31 184.32 149.21 167.42 149.21 167.42 183.01 ZM 122.63 238.79 L 173.34 238.79 173.34 255.69 139.54 255.69 139.54 272.59 173.34 272.59 173.34 289.49 122.63 289.49 ZM 89.68 263.30 L 89.68 246.39 106.58 246.39 106.58 263.30 123.48 263.30 123.48 280.20 106.58 280.20 106.58 297.10 89.68 297.10 89.68 280.20 72.77 280.20 72.77 263.30 ZM 311.08 237.10 L 311.08 220.20 327.99 220.20 327.99 237.10 344.89 237.10 344.89 254.00 327.99 254.00 327.99 270.90 311.08 270.90 311.08 254.00 294.18 254.00 294.18 237.10 ZM 157.28 94.28 L 157.28 77.38 174.18 77.38 174.18 94.28 191.08 94.28 191.08 111.18 174.18 111.18 174.18 128.08 157.28 128.08 157.28 111.18 140.38 111.18 140.38 94.28 ZM 207.99 113.72 L 207.99 96.82 224.89 96.82 224.89 113.72 241.79 113.72 241.79 130.62 224.89 130.62 224.89 147.52 207.99 147.52 207.99 130.62 191.08 130.62 191.08 113.72 ZM 120.10 311.46 L 120.10 277.66 103.20 277.66 103.20 260.76 153.90 260.76 153.90 277.66 137.00 277.66 137.00 311.46 ZM 219.82 316.54 L 270.52 316.54 270.52 333.44 236.72 333.44 236.72 350.34 270.52 350.34 270.52 367.24 219.82 367.24 ZM 275.59 226.11 L 326.30 226.11 326.30 243.01 292.49 243.01 292.49 259.92 326.30 259.92 326.30 276.82 275.59 276.82 ZM 61.79 311.46 L 112.49 311.46 112.49 328.37 78.69 328.37 78.69 345.27 112.49 345.27 112.49 362.17 61.79 362.17 ZM 260.38 315.69 L 311.08 315.69 311.08 332.59 277.28 332.59 277.28 349.49 311.08 349.49 311.08 366.39 260.38 366.39 ZM 168.27 194.85 L 218.97 194.85 218.97 211.75 185.17 211.75 185.17 228.65 218.97 228.65 218.97 245.55 168.27 245.55 ZM 148.83 160.20 L 148.83 143.30 165.73 143.30 165.73 160.20 182.63 160.20 182.63 177.10 165.73 177.10 165.73 194.00 148.83 194.00 148.83 177.10 131.93 177.10 131.93 160.20 ZM 317.00 284.42 L 317.00 267.52 333.90 267.52 333.90 284.42 350.80 284.42 350.80 301.32 333.90 301.32 333.90 318.23 317.00 318.23 317.00 301.32 300.10 301.32 300.10 284.42 ZM 306.01 367.24 L 306.01 333.44 289.11 333.44 289.11 316.54 339.82 316.54 339.82 333.44 322.92 333.44 322.92 367.24 ZM 263.76 181.32 L 263.76 164.42 280.66 164.42 280.66 181.32 297.56 181.32 297.56 198.23 280.66 198.23 280.66 215.13 263.76 215.13 263.76 198.23 246.86 198.23 246.86 181.32 ZM 264.61 134.85 L 264.61 117.94 281.51 117.94 281.51 134.85 298.41 134.85 298.41 151.75 281.51 151.75 281.51 168.65 264.61 168.65 264.61 151.75 247.70 151.75 247.70 134.85 ZM 195.31 172.03 L 246.01 172.03 246.01 188.93 212.21 188.93 212.21 205.83 246.01 205.83 246.01 222.73 195.31 222.73 ZM 181.79 240.48 L 181.79 223.58 198.69 223.58 198.69 240.48 215.59 240.48 215.59 257.38 198.69 257.38 198.69 274.28 181.79 274.28 181.79 257.38 164.89 257.38 164.89 240.48 ZM 122.63 181.32 L 122.63 164.42 139.54 164.42 139.54 181.32 156.44 181.32 156.44 198.23 139.54 198.23 139.54 215.13 122.63 215.13 122.63 198.23 105.73 198.23 105.73 181.32 ZM 277.28 68.08 L 327.99 68.08 327.99 84.99 294.18 84.99 294.18 101.89 327.99 101.89 327.99 118.79 277.28 118.79 ZM 322.07 195.69 L 322.07 178.79 338.97 178.79 338.97 195.69 355.87 195.69 355.87 212.59 338.97 212.59 338.97 229.49 322.07 229.49 322.07 212.59 305.17 212.59 305.17 195.69 ZM 116.72 206.68 L 116.72 172.87 99.82 172.87 99.82 155.97 150.52 155.97 150.52 172.87 133.62 172.87 133.62 206.68 ZM 134.46 161.04 L 185.17 161.04 185.17 177.94 151.37 177.94 151.37 194.85 185.17 194.85 185.17 211.75 134.46 211.75 ZM 215.59 297.10 L 266.30 297.10 266.30 314.00 232.49 314.00 232.49 330.90 266.30 330.90 266.30 347.80 215.59 347.80 ZM 249.39 150.06 L 249.39 116.25 232.49 116.25 232.49 99.35 283.20 99.35 283.20 116.25 266.30 116.25 266.30 150.06 ZM 336.44 339.35 L 336.44 322.45 353.34 322.45 353.34 339.35 370.24 339.35 370.24 356.25 353.34 356.25 353.34 373.15 336.44 373.15 336.44 356.25 319.54 356.25 319.54 339.35 ZM 259.54 368.93 L 259.54 335.13 242.63 335.13 242.63 318.23 293.34 318.23 293.34 335.13 276.44 335.13 276.44 368.93 ZM 328.83 149.21 L 379.54 149.21 379.54 166.11 345.73 166.11 345.73 183.01 379.54 183.01 379.54 199.92 328.83 199.92 ZM 36.44 336.82 L 36.44 303.01 19.54 303.01 19.54 286.11 70.24 286.11 70.24 303.01 53.34 303.01 53.34 336.82 ZM 229.96 367.24 L 229.96 333.44 213.06 333.44 213.06 316.54 263.76 316.54 263.76 333.44 246.86 333.44 246.86 367.24 ZM 267.14 197.38 L 267.14 163.58 250.24 163.58 250.24 146.68 300.94 146.68 300.94 163.58 284.04 163.58 284.04 197.38 ZM 205.45 96.82 L 256.15 96.82 256.15 113.72 222.35 113.72 222.35 130.62 256.15 130.62 256.15 147.52 205.45 147.52 ZM 166.58 267.52 L 166.58 250.62 183.48 250.62 183.48 267.52 200.38 267.52 200.38 284.42 183.48 284.42 183.48 301.32 166.58 301.32 166.58 284.42 149.68 284.42 149.68 267.52 ZM 286.58 200.76 L 337.28 200.76 337.28 217.66 303.48 217.66 303.48 234.56 337.28 234.56 337.28 251.46 286.58 251.46 ZM 67.70 302.17 L 67.70 285.27 84.61 285.27 84.61 302.17 101.51 302.17 101.51 319.07 84.61 319.07 84.61 335.97 67.70 335.97 67.70 319.07 50.80 319.07 50.80 302.17 ZM 258.69 373.15 L 258.69 339.35 241.79 339.35 241.79 322.45 292.49 322.45 292.49 339.35 275.59 339.35 275.59 373.15 ZM 261.23 200.76 L 261.23 166.96 244.32 166.96 244.32 150.06 295.03 150.06 295.03 166.96 278.13 166.96 278.13 200.76 ZM 105.73 285.27 L 105.73 268.37 122.63 268.37 122.63 285.27 139.54 285.27 139.54 302.17 122.63 302.17 122.63 319.07 105.73 319.07 105.73 302.17 88.83 302.17 88.83 285.27 ZM 301.79 28.37 L 352.49 28.37 352.49 45.27 318.69 45.27 318.69 62.17 352.49 62.17 352.49 79.07 301.79 79.07 ZM 190.24 294.56 L 190.24 260.76 173.34 260.76 173.34 243.86 224.04 243.86 224.04 260.76 207.14 260.76 207.14 294.56 ZM 56.72 292.03 L 107.42 292.03 107.42 308.93 73.62 308.93 73.62 325.83 107.42 325.83 107.42 342.73 56.72 342.73 ZM 101.51 225.27 L 101.51 191.46 84.61 191.46 84.61 174.56 135.31 174.56 135.31 191.46 118.41 191.46 118.41 225.27 ZM 84.61 37.66 L 135.31 37.66 135.31 54.56 101.51 54.56 101.51 71.46 135.31 71.46 135.31 88.37 84.61 88.37 ZM 40.66 70.62 L 40.66 36.82 23.76 36.82 23.76 19.92 74.46 19.92 74.46 36.82 57.56 36.82 57.56 70.62 ZM 201.23 206.68 L 201.23 189.77 218.13 189.77 218.13 206.68 235.03 206.68 235.03 223.58 218.13 223.58 218.13 240.48 201.23 240.48 201.23 223.58 184.32 223.58 184.32 206.68 ZM 184.32 117.10 L 235.03 117.10 235.03 134.00 201.23 134.00 201.23 150.90 235.03 150.90 235.03 167.80 184.32 167.80 ZM 279.82 83.30 L 279.82 66.39 296.72 66.39 296.72 83.30 313.62 83.30 313.62 100.20 296.72 100.20 296.72 117.10 279.82 117.10 279.82 100.20 262.92 100.20 262.92 83.30 ZM 114.18 201.61 L 114.18 184.70 131.08 184.70 131.08 201.61 147.99 201.61 147.99 218.51 131.08 218.51 131.08 235.41 114.18 235.41 114.18 218.51 97.28 218.51 97.28 201.61 ZM 333.06 353.72 L 333.06 319.92 316.15 319.92 316.15 303.01 366.86 303.01 366.86 319.92 349.96 319.92 349.96 353.72 ZM 223.20 226.96 L 273.90 226.96 273.90 243.86 240.10 243.86 240.10 260.76 273.90 260.76 273.90 277.66 223.20 277.66 ZM 83.76 88.37 L 83.76 54.56 66.86 54.56 66.86 37.66 117.56 37.66 117.56 54.56 100.66 54.56 100.66 88.37 ZM 227.42 315.69 L 278.13 315.69 278.13 332.59 244.32 332.59 244.32 349.49 278.13 349.49 278.13 366.39 227.42 366.39 ZM 109.96 325.83 L 160.66 325.83 160.66 342.73 126.86 342.73 126.86 359.63 160.66 359.63 160.66 376.54 109.96 376.54 ZM 300.10 74.00 L 300.10 57.10 317.00 57.10 317.00 74.00 333.90 74.00 333.90 90.90 317.00 90.90 317.00 107.80 300.10 107.80 300.10 90.90 283.20 90.90 283.20 74.00 ZM 178.41 111.18 L 178.41 94.28 195.31 94.28 195.31 111.18 212.21 111.18 212.21 128.08 195.31 128.08 195.31 144.99 178.41 144.99 178.41 128.08 161.51 128.08 161.51 111.18 ZM 102.35 220.20 L 102.35 203.30 119.25 203.30 119.25 220.20 136.15 220.20 136.15 237.10 119.25 237.10 119.25 254.00 102.35 254.00 102.35 237.10 85.45 237.10 85.45 220.20 ZM 33.06 133.15 L 83.76 133.15 83.76 150.06 49.96 150.06 49.96 166.96 83.76 166.96 83.76 183.86 33.06 183.86 ZM 58.41 182.17 L 58.41 148.37 41.51 148.37 41.51 131.46 92.21 131.46 92.21 148.37 75.31 148.37 75.31 182.17 ZM 209.68 304.70 L 260.38 304.70 260.38 321.61 226.58 321.61 226.58 338.51 260.38 338.51 260.38 355.41 209.68 355.41 ZM 285.73 246.39 L 285.73 229.49 302.63 229.49 302.63 246.39 319.54 246.39 319.54 263.30 302.63 263.30 302.63 280.20 285.73 280.20 285.73 263.30 268.83 263.30 268.83 246.39 ZM 238.41 226.96 L 238.41 210.06 255.31 210.06 255.31 226.96 272.21 226.96 272.21 243.86 255.31 243.86 255.31 260.76 238.41 260.76 238.41 243.86 221.51 243.86 221.51 226.96 ZM 189.39 76.54 L 240.10 76.54 240.10 93.44 206.30 93.44 206.30 110.34 240.10 110.34 240.10 127.24 189.39 127.24 ZM 284.89 178.79 L 284.89 161.89 301.79 161.89 301.79 178.79 318.69 178.79 318.69 195.69 301.79 195.69 301.79 212.59 284.89 212.59 284.89 195.69 267.99 195.69 267.99 178.79 ZM 198.69 193.15 L 249.39 193.15 249.39 210.06 215.59 210.06 215.59 226.96 249.39 226.96 249.39 243.86 198.69 243.86 ZM 188.55 29.21 L 239.25 29.21 239.25 46.11 205.45 46.11 205.45 63.01 239.25 63.01 239.25 79.92 188.55 79.92 ZM 300.94 167.80 L 300.94 150.90 317.85 150.90 317.85 167.80 334.75 167.80 334.75 184.70 317.85 184.70 317.85 201.61 300.94 201.61 300.94 184.70 284.04 184.70 284.04 167.80 ZM 139.54 308.93 L 139.54 292.03 156.44 292.03 156.44 308.93 173.34 308.93 173.34 325.83 156.44 325.83 156.44 342.73 139.54 342.73 139.54 325.83 122.63 325.83 122.63 308.93 ZM 229.96 367.24 L 229.96 333.44 213.06 333.44 213.06 316.54 263.76 316.54 263.76 333.44 246.86 333.44 246.86 367.24 ZM 68.55 95.13 L 119.25 95.13 119.25 112.03 85.45 112.03 85.45 128.93 119.25 128.93 119.25 145.83 68.55 145.83 ZM 292.49 285.27 L 292.49 251.46 275.59 251.46 275.59 234.56 326.30 234.56 326.30 251.46 309.39 251.46 309.39 285.27 ZM 147.99 150.90 L 147.99 117.10 131.08 117.10 131.08 100.20 181.79 100.20 181.79 117.10 164.89 117.10 164.89 150.90 ZM 299.25 143.30 L 299.25 109.49 282.35 109.49 282.35 92.59 333.06 92.59 333.06 109.49 316.15 109.49 316.15 143.30 ZM 140.38 35.13 L 191.08 35.13 191.08 52.03 157.28 52.03 157.28 68.93 191.08 68.93 191.08 85.83 140.38 85.83 ZM 246.86 123.86 L 246.86 106.96 263.76 106.96 263.76 123.86 280.66 123.86 280.66 140.76 263.76 140.76 263.76 157.66 246.86 157.66 246.86 140.76 229.96 140.76 229.96 123.86 ZM 321.23 176.25 L 371.93 176.25 371.93 193.15 338.13 193.15 338.13 210.06 371.93 210.06 371.93 226.96 321.23 226.96 ZM 71.08 101.04 L 121.79 101.04 121.79 117.94 87.99 117.94 87.99 134.85 121.79 134.85 121.79 151.75 71.08 151.75 ZM 120.94 219.35 L 120.94 185.55 104.04 185.55 104.04 168.65 154.75 168.65 154.75 185.55 137.85 185.55 137.85 219.35 ZM 32.21 249.77 L 82.92 249.77 82.92 266.68 49.11 266.68 49.11 283.58 82.92 283.58 82.92 300.48 32.21 300.48 ZM 236.72 225.27 L 236.72 208.37 253.62 208.37 253.62 225.27 270.52 225.27 270.52 242.17 253.62 242.17 253.62 259.07 236.72 259.07 236.72 242.17 219.82 242.17 219.82 225.27 ZM 153.90 160.20 L 153.90 126.39 137.00 126.39 137.00 109.49 187.70 109.49 187.70 126.39 170.80 126.39 170.80 160.20 ZM 334.75 84.14 L 334.75 50.34 317.85 50.34 317.85 33.44 368.55 33.44 368.55 50.34 351.65 50.34 351.65 84.14 ZM 304.32 270.06 L 355.03 270.06 355.03 286.96 321.23 286.96 321.23 303.86 355.03 303.86 355.03 320.76 304.32 320.76 ZM 102.35 201.61 L 102.35 167.80 85.45 167.80 85.45 150.90 136.15 150.90 136.15 167.80 119.25 167.80 119.25 201.61 ZM 75.31 323.30 L 75.31 306.39 92.21 306.39 92.21 323.30 109.11 323.30 109.11 340.20 92.21 340.20 92.21 357.10 75.31 357.10 75.31 340.20 58.41 340.20 58.41 323.30 ZM 56.72 208.37 L 107.42 208.37 107.42 225.27 73.62 225.27 73.62 242.17 107.42 242.17 107.42 259.07 56.72 259.07 ZM 238.41 333.44 L 238.41 299.63 221.51 299.63 221.51 282.73 272.21 282.73 272.21 299.63 255.31 299.63 255.31 333.44 ZM 231.65 281.89 L 231.65 248.08 214.75 248.08 214.75 231.18 265.45 231.18 265.45 248.08 248.55 248.08 248.55 281.89 ZM 21.23 94.28 L 71.93 94.28 71.93 111.18 38.13 111.18 38.13 128.08 71.93 128.08 71.93 144.99 21.23 144.99 Z"
    style="fill:#0066FF; fill-opacity:0.06; fill-rule:nonzero; stroke:#0066FF; stroke-opacity:0.25; stroke-width:1.00;"/>

  <path d="M 72.77 69.77 L 299.25 69.77 299.25 296.25 72.77 296.25 Z"
    style="fill:#FFAA00; fill-opacity:0.06; fill-rule:nonzero; stroke:#FF0000; stroke-opacity:1.00; stroke-width:1.00;"/>

  <path d="M 175.87 147.52 L 175.87 130.62 192.77 130.62 192.77 147.52 209.68 147.52 209.68 164.42 192.77 164.42 192.77 181.32 175.87 181.32 175.87 164.42 158.97 164.42 158.97 147.52 ZM 253.62 217.66 L 253.62 166.96 299.25 166.96 299.25 183.86 270.52 183.86 270.52 200.76 299.25 200.76 299.25 217.66 ZM 72.77 296.25 L 72.77 258.23 93.90 258.23 93.90 275.13 72.77 275.13 72.77 292.03 93.90 292.03 93.90 296.25 ZM 104.04 174.56 L 104.04 140.76 87.14 140.76 87.14 123.86 137.85 123.86 137.85 140.76 120.94 140.76 120.94 174.56 ZM 77.00 272.59 L 93.90 272.59 93.90 255.69 110.80 255.69 110.80 272.59 127.70 272.59 127.70 289.49 110.80 289.49 110.80 296.25 93.90 296.25 93.90 289.49 77.00 289.49 ZM 299.25 155.97 L 299.25 172.87 289.11 172.87 289.11 155.97 ZM 263.76 69.77 L 280.66 69.77 280.66 74.85 263.76 74.85 ZM 295.87 82.45 L 299.25 82.45 299.25 99.35 295.87 99.35 ZM 95.59 150.90 L 78.69 150.90 78.69 117.10 72.77 117.10 72.77 100.20 112.49 100.20 112.49 117.10 95.59 117.10 ZM 150.52 183.01 L 150.52 149.21 133.62 149.21 133.62 132.31 184.32 132.31 184.32 149.21 167.42 149.21 167.42 183.01 ZM 122.63 238.79 L 173.34 238.79 173.34 255.69 139.54 255.69 139.54 272.59 173.34 272.59 173.34 289.49 122.63 289.49 ZM 72.77 263.30 L 89.68 263.30 89.68 246.39 106.58 246.39 106.58 263.30 123.48 263.30 123.48 280.20 106.58 280.20 106.58 296.25 89.68 296.25 89.68 280.20 72.77 280.20 ZM 294.18 237.10 L 299.25 237.10 299.25 254.00 294.18 254.00 ZM 157.28 94.28 L 157.28 77.38 174.18 77.38 174.18 94.28 191.08 94.28 191.08 111.18 174.18 111.18 174.18 128.08 157.28 128.08 157.28 111.18 140.38 111.18 140.38 94.28 ZM 207.99 113.72 L 207.99 96.82 224.89 96.82 224.89 113.72 241.79 113.72 241.79 130.62 224.89 130.62 224.89 147.52 207.99 147.52 207.99 130.62 191.08 130.62 191.08 113.72 ZM 137.00 296.25 L 120.10 296.25 120.10 277.66 103.20 277.66 103.20 260.76 153.90 260.76 153.90 277.66 137.00 277.66 ZM 275.59 276.82 L 275.59 226.11 299.25 226.11 299.25 243.01 292.49 243.01 292.49 259.92 299.25 259.92 299.25 276.82 ZM 168.27 194.85 L 218.97 194.85 218.97 211.75 185.17 211.75 185.17 228.65 218.97 228.65 218.97 245.55 168.27 245.55 ZM 148.83 160.20 L 148.83 143.30 165.73 143.30 165.73 160.20 182.63 160.20 182.63 177.10 165.73 177.10 165.73 194.00 148.83 194.00 148.83 177.10 131.93 177.10 131.93 160.20 ZM 263.76 181.32 L 263.76 164.42 280.66 164.42 280.66 181.32 297.56 181.32 297.56 198.23 280.66 198.23 280.66 215.13 263.76 215.13 263.76 198.23 246.86 198.23 246.86 181.32 ZM 264.61 134.85 L 264.61 117.94 281.51 117.94 281.51 134.85 298.41 134.85 298.41 151.75 281.51 151.75 281.51 168.65 264.61 168.65 264.61 151.75 247.70 151.75 247.70 134.85 ZM 195.31 172.03 L 246.01 172.03 246.01 188.93 212.21 188.93 212.21 205.83 246.01 205.83 246.01 222.73 195.31 222.73 ZM 181.79 240.48 L 181.79 223.58 198.69 223.58 198.69 240.48 215.59 240.48 215.59 257.38 198.69 257.38 198.69 274.28 181.79 274.28 181.79 257.38 164.89 257.38 164.89 240.48 ZM 122.63 181.32 L 122.63 164.42 139.54 164.42 139.54 181.32 156.44 181.32 156.44 198.23 139.54 198.23 139.54 215.13 122.63 215.13 122.63 198.23 105.73 198.23 105.73 181.32 ZM 277.28 118.79 L 277.28 69.77 299.25 69.77 299.25 84.99 294.18 84.99 294.18 101.89 299.25 101.89 299.25 118.79 ZM 116.72 206.68 L 116.72 172.87 99.82 172.87 99.82 155.97 150.52 155.97 150.52 172.87 133.62 172.87 133.62 206.68 ZM 134.46 161.04 L 185.17 161.04 185.17 177.94 151.37 177.94 151.37 194.85 185.17 194.85 185.17 211.75 134.46 211.75 ZM 249.39 150.06 L 249.39 116.25 232.49 116.25 232.49 99.35 283.20 99.35 283.20 116.25 266.30 116.25 266.30 150.06 ZM 284.04 197.38 L 267.14 197.38 267.14 163.58 250.24 163.58 250.24 146.68 299.25 146.68 299.25 163.58 284.04 163.58 ZM 205.45 96.82 L 256.15 96.82 256.15 113.72 222.35 113.72 222.35 130.62 256.15 130.62 256.15 147.52 205.45 147.52 ZM 149.68 267.52 L 166.58 267.52 166.58 250.62 183.48 250.62 183.48 267.52 200.38 267.52 200.38 284.42 183.48 284.42 183.48 296.25 166.58 296.25 166.58 284.42 149.68 284.42 ZM 286.58 251.46 L 286.58 200.76 299.25 200.76 299.25 251.46 ZM 72.77 296.25 L 72.77 285.27 84.61 285.27 84.61 296.25 ZM 261.23 200.76 L 261.23 166.96 244.32 166.96 244.32 150.06 295.03 150.06 295.03 166.96 278.13 166.96 278.13 200.76 ZM 88.83 285.27 L 105.73 285.27 105.73 268.37 122.63 268.37 122.63 285.27 139.54 285.27 139.54 296.25 88.83 296.25 ZM 190.24 294.56 L 190.24 260.76 173.34 260.76 173.34 243.86 224.04 243.86 224.04 260.76 207.14 260.76 207.14 294.56 ZM 72.77 296.25 L 72.77 292.03 107.42 292.03 107.42 296.25 ZM 101.51 225.27 L 101.51 191.46 84.61 191.46 84.61 174.56 135.31 174.56 135.31 191.46 118.41 191.46 118.41 225.27 ZM 84.61 88.37 L 84.61 69.77 101.51 69.77 101.51 71.46 135.31 71.46 135.31 88.37 ZM 201.23 206.68 L 201.23 189.77 218.13 189.77 218.13 206.68 235.03 206.68 235.03 223.58 218.13 223.58 218.13 240.48 201.23 240.48 201.23 223.58 184.32 223.58 184.32 206.68 ZM 184.32 117.10 L 235.03 117.10 235.03 134.00 201.23 134.00 201.23 150.90 235.03 150.90 235.03 167.80 184.32 167.80 ZM 262.92 83.30 L 279.82 83.30 279.82 69.77 296.72 69.77 296.72 83.30 299.25 83.30 299.25 100.20 296.72 100.20 296.72 117.10 279.82 117.10 279.82 100.20 262.92 100.20 ZM 114.18 201.61 L 114.18 184.70 131.08 184.70 131.08 201.61 147.99 201.61 147.99 218.51 131.08 218.51 131.08 235.41 114.18 235.41 114.18 218.51 97.28 218.51 97.28 201.61 ZM 223.20 226.96 L 273.90 226.96 273.90 243.86 240.10 243.86 240.10 260.76 273.90 260.76 273.90 277.66 223.20 277.66 ZM 100.66 88.37 L 83.76 88.37 83.76 69.77 100.66 69.77 ZM 283.20 74.00 L 299.25 74.00 299.25 90.90 283.20 90.90 ZM 178.41 111.18 L 178.41 94.28 195.31 94.28 195.31 111.18 212.21 111.18 212.21 128.08 195.31 128.08 195.31 144.99 178.41 144.99 178.41 128.08 161.51 128.08 161.51 111.18 ZM 102.35 220.20 L 102.35 203.30 119.25 203.30 119.25 220.20 136.15 220.20 136.15 237.10 119.25 237.10 119.25 254.00 102.35 254.00 102.35 237.10 85.45 237.10 85.45 220.20 ZM 72.77 183.86 L 72.77 133.15 83.76 133.15 83.76 150.06 72.77 150.06 72.77 166.96 83.76 166.96 83.76 183.86 ZM 75.31 182.17 L 72.77 182.17 72.77 131.46 92.21 131.46 92.21 148.37 75.31 148.37 ZM 268.83 246.39 L 285.73 246.39 285.73 229.49 299.25 229.49 299.25 280.20 285.73 280.20 285.73 263.30 268.83 263.30 ZM 238.41 226.96 L 238.41 210.06 255.31 210.06 255.31 226.96 272.21 226.96 272.21 243.86 255.31 243.86 255.31 260.76 238.41 260.76 238.41 243.86 221.51 243.86 221.51 226.96 ZM 189.39 76.54 L 240.10 76.54 240.10 93.44 206.30 93.44 206.30 110.34 240.10 110.34 240.10 127.24 189.39 127.24 ZM 267.99 178.79 L 284.89 178.79 284.89 161.89 299.25 161.89 299.25 212.59 284.89 212.59 284.89 195.69 267.99 195.69 ZM 198.69 193.15 L 249.39 193.15 249.39 210.06 215.59 210.06 215.59 226.96 249.39 226.96 249.39 243.86 198.69 243.86 ZM 188.55 79.92 L 188.55 69.77 239.25 69.77 239.25 79.92 ZM 284.04 167.80 L 299.25 167.80 299.25 184.70 284.04 184.70 ZM 156.44 296.25 L 139.54 296.25 139.54 292.03 156.44 292.03 ZM 72.77 145.83 L 72.77 95.13 119.25 95.13 119.25 112.03 85.45 112.03 85.45 128.93 119.25 128.93 119.25 145.83 ZM 299.25 234.56 L 299.25 285.27 292.49 285.27 292.49 251.46 275.59 251.46 275.59 234.56 ZM 147.99 150.90 L 147.99 117.10 131.08 117.10 131.08 100.20 181.79 100.20 181.79 117.10 164.89 117.10 164.89 150.90 ZM 299.25 92.59 L 299.25 109.49 282.35 109.49 282.35 92.59 ZM 140.38 85.83 L 140.38 69.77 191.08 69.77 191.08 85.83 ZM 246.86 123.86 L 246.86 106.96 263.76 106.96 263.76 123.86 280.66 123.86 280.66 140.76 263.76 140.76 263.76 157.66 246.86 157.66 246.86 140.76 229.96 140.76 229.96 123.86 ZM 72.77 151.75 L 72.77 101.04 121.79 101.04 121.79 117.94 87.99 117.94 87.99 134.85 121.79 134.85 121.79 151.75 ZM 120.94 219.35 L 120.94 185.55 104.04 185.55 104.04 168.65 154.75 168.65 154.75 185.55 137.85 185.55 137.85 219.35 ZM 72.77 296.25 L 72.77 249.77 82.92 249.77 82.92 266.68 72.77 266.68 72.77 283.58 82.92 283.58 82.92 296.25 ZM 236.72 225.27 L 236.72 208.37 253.62 208.37 253.62 225.27 270.52 225.27 270.52 242.17 253.62 242.17 253.62 259.07 236.72 259.07 236.72 242.17 219.82 242.17 219.82 225.27 ZM 153.90 160.20 L 153.90 126.39 137.00 126.39 137.00 109.49 187.70 109.49 187.70 126.39 170.80 126.39 170.80 160.20 ZM 102.35 201.61 L 102.35 167.80 85.45 167.80 85.45 150.90 136.15 150.90 136.15 167.80 119.25 167.80 119.25 201.61 ZM 72.77 259.07 L 72.77 208.37 107.42 208.37 107.42 225.27 73.62 225.27 73.62 242.17 107.42 242.17 107.42 259.07 ZM 272.21 296.25 L 221.51 296.25 221.51 282.73 272.21 282.73 ZM 231.65 281.89 L 231.65 248.08 214.75 248.08 214.75 231.18 265.45 231.18 265.45 248.08 248.55 248.08 248.55 281.89 Z"
    style="fill:#66FF66; fill-opacity:0.50; fill-rule:nonzero; stroke:#006600; stroke-opacity:1.00; stroke-width:1.80;"/>

</svg>

