<svg width="300px" height="300px" viewBox="0 0 300 300" version="1.1" xmlns="http://www.w3.org/2000/svg">
  <path d="M 274.31 147.65 L 35.53 224.59 181.45 20.31 181.45 275.00 35.53 70.71 Z"
    style="fill:#0099FF; fill-opacity:0.13; fill-rule:nonzero; stroke:#0066FF; stroke-opacity:0.50; stroke-width:1.00;"/>

  <path d="M 269.00 182.14 L 19.61 195.41 213.29 36.22 146.96 280.31 59.41 46.84 Z"
    style="fill:#FF9900; fill-opacity:0.13; fill-rule:nonzero; stroke:#FF6600; stroke-opacity:0.50; stroke-width:1.00;"/>

  <path d="M 181.45 62.39 L 213.29 36.22 190.36 120.59 274.31 147.65 235.12 160.27 269.00 182.14 181.45 186.79 181.45 275.00 157.51 241.48 146.96 280.31 116.30 198.56 35.53 224.59 57.82 193.37 19.61 195.41 85.76 141.03 35.53 70.71 72.87 82.74 59.41 46.84 129.96 92.38 181.45 20.31 Z"
    style="fill:#66FF66; fill-opacity:0.50; fill-rule:nonzero; stroke:#006600; stroke-opacity:1.00; stroke-width:1.50;"/>

</svg>

