<?xml version="1.0" standalone="no"?>
<svg width="300px" height="300px" viewBox="0 0 300 300" version="1.1" xmlns="http://www.w3.org/2000/svg">

 <path d=" M 263.83 150.42 L 20.08 228.96 L 169.04 20.42 L 169.04 280.42 L 20.08 71.88 z"
 style="fill:#00009C; fill-opacity:0.09; fill-rule:nonzero; stroke:#B3B3DA; stroke-opacity:0.67; stroke-width:0.80;"/>

 <path d=" M 169.04 120.62 L 263.83 150.42 L 169.04 180.21 L 169.04 280.42 L 109.46 199.17 L 20.08 228.96 L 74.25 150.42 L 20.08 71.88 L 109.46 98.96 L 169.04 20.42 z"
 style="fill:#80FF9C; fill-opacity:0.25; fill-rule:nonzero; stroke:#003300; stroke-opacity:1.00; stroke-width:1.50;"/>

 <path d=" M 179.88 120.62 L 179.34 123.97 L 177.81 126.99 L 175.41 129.39 L 172.39 130.93 L 169.04 131.46 L 165.69 130.93 L 162.67 129.39 L 160.28 126.99 L 158.74 123.97 L 158.21 120.62 L 158.74 117.28 L 160.28 114.26 L 162.67 111.86 L 165.69 110.32 L 169.04 109.79 L 172.39 110.32 L 175.41 111.86 L 177.81 114.26 L 179.34 117.28 z"
 style="fill:#FF0000; fill-opacity:0.13; fill-rule:nonzero; stroke:#FF0000; stroke-opacity:1.00; stroke-width:1.00;"/>

 <path d=" M 179.88 180.21 L 179.34 183.56 L 177.81 186.58 L 175.41 188.97 L 172.39 190.51 L 169.04 191.04 L 165.69 190.51 L 162.67 188.97 L 160.28 186.58 L 158.74 183.56 L 158.21 180.21 L 158.74 176.86 L 160.28 173.84 L 162.67 171.44 L 165.69 169.91 L 169.04 169.38 L 172.39 169.91 L 175.41 171.44 L 177.81 173.84 L 179.34 176.86 z"
 style="fill:#FF0000; fill-opacity:0.13; fill-rule:nonzero; stroke:#FF0000; stroke-opacity:1.00; stroke-width:1.00;"/>

 <path d=" M 120.29 199.17 L 119.76 202.51 L 118.22 205.53 L 115.83 207.93 L 112.81 209.47 L 109.46 210.00 L 106.11 209.47 L 103.09 207.93 L 100.69 205.53 L 99.16 202.51 L 98.62 199.17 L 99.16 195.82 L 100.69 192.80 L 103.09 190.40 L 106.11 188.86 L 109.46 188.33 L 112.81 188.86 L 115.83 190.40 L 118.22 192.80 L 119.76 195.82 z"
 style="fill:#FF0000; fill-opacity:0.13; fill-rule:nonzero; stroke:#FF0000; stroke-opacity:1.00; stroke-width:1.00;"/>

 <path d=" M 85.08 150.42 L 84.55 153.76 L 83.01 156.78 L 80.62 159.18 L 77.60 160.72 L 74.25 161.25 L 70.90 160.72 L 67.88 159.18 L 65.49 156.78 L 63.95 153.76 L 63.42 150.42 L 63.95 147.07 L 65.49 144.05 L 67.88 141.65 L 70.90 140.11 L 74.25 139.58 L 77.60 140.11 L 80.62 141.65 L 83.01 144.05 L 84.55 147.07 z"
 style="fill:#FF0000; fill-opacity:0.13; fill-rule:nonzero; stroke:#FF0000; stroke-opacity:1.00; stroke-width:1.00;"/>

 <path d=" M 120.29 98.96 L 119.76 102.31 L 118.22 105.33 L 115.83 107.72 L 112.81 109.26 L 109.46 109.79 L 106.11 109.26 L 103.09 107.72 L 100.69 105.33 L 99.16 102.31 L 98.62 98.96 L 99.16 95.61 L 100.69 92.59 L 103.09 90.19 L 106.11 88.66 L 109.46 88.13 L 112.81 88.66 L 115.83 90.19 L 118.22 92.59 L 119.76 95.61 z"
 style="fill:#FF0000; fill-opacity:0.13; fill-rule:nonzero; stroke:#FF0000; stroke-opacity:1.00; stroke-width:1.00;"/>

</svg>
